<?xml version="1.0" encoding="UTF-8"?>
<svg width="628px" height="361px" viewBox="0 0 628 361" version="1.1" xmlns="http://www.w3.org/2000/svg" xmlns:xlink="http://www.w3.org/1999/xlink">
    <!-- Generator: Sketch 62 (91390) - https://sketch.com -->
    <title>undraw_Meeting_re_i53h</title>
    <desc>Created with Sketch.</desc>
    <g id="Page-1" stroke="none" stroke-width="1" fill="none" fill-rule="evenodd">
        <g id="Apple-TV-Copy-2" transform="translate(-1000.000000, -2677.000000)" fill-rule="nonzero">
            <g id="undraw_Meeting_re_i53h" transform="translate(1000.000000, 2677.000000)">
                <circle id="Oval" fill="#F2F2F2" cx="324" cy="5" r="5"></circle>
                <circle id="Oval" fill="#F2F2F2" cx="324" cy="26" r="5"></circle>
                <circle id="Oval" fill="#F2F2F2" cx="346" cy="5" r="5"></circle>
                <circle id="Oval" fill="#F2F2F2" cx="346" cy="26" r="5"></circle>
                <circle id="Oval" fill="#F2F2F2" cx="367" cy="5" r="5"></circle>
                <circle id="Oval" fill="#F2F2F2" cx="367" cy="26" r="5"></circle>
                <circle id="Oval" fill="#F2F2F2" cx="367" cy="46" r="5"></circle>
                <circle id="Oval" fill="#F2F2F2" cx="367" cy="67" r="5"></circle>
                <circle id="Oval" fill="#F2F2F2" cx="389" cy="5" r="5"></circle>
                <circle id="Oval" fill="#F2F2F2" cx="389" cy="26" r="5"></circle>
                <circle id="Oval" fill="#F2F2F2" cx="389" cy="46" r="5"></circle>
                <circle id="Oval" fill="#F2F2F2" cx="389" cy="67" r="5"></circle>
                <circle id="Oval" fill="#F2F2F2" cx="410" cy="5" r="5"></circle>
                <circle id="Oval" fill="#F2F2F2" cx="410" cy="26" r="5"></circle>
                <circle id="Oval" fill="#F2F2F2" cx="432" cy="5" r="5"></circle>
                <circle id="Oval" fill="#F2F2F2" cx="432" cy="26" r="5"></circle>
                <path d="M589.000018,272 L550.59222,272 C550.59222,273.124444 511.00823,274.037037 511.00823,274.037037 C510.386927,274.513518 509.820678,275.06022 509.320334,275.666667 C507.816816,277.493087 506.995038,279.801731 507,282.185185 L507,283.814815 C507.002058,289.439078 511.478017,293.997927 517.00002,294 L589,294 C594.520861,293.995117 598.995205,289.437913 599,283.814815 L599,282.185185 C598.992359,276.563296 594.51969,272.007791 589.000018,272 Z" id="Path" fill="#3F3D56"></path>
                <rect id="Rectangle" fill="#3F3D56" x="549" y="293" width="10" height="67"></rect>
                <path d="M588,360.33689 C588,361.494431 572.329967,360.784621 553,360.784621 C533.670033,360.784621 518,361.494431 518,360.33689 C518,359.179348 533.670033,350 553,350 C572.329967,350 588,359.17934 588,360.33689 Z" id="Path" fill="#3F3D56"></path>
                <polygon id="Path" fill="#FFB8B8" points="500.998453 351 491.512959 350.999196 487 313 501 313.000804"></polygon>
                <path d="M484.977282,348 L504,348 L504,360 L473,360 L473,360 C473,353.372582 478.362415,348 484.977282,348 L484.977282,348 Z" id="Path" fill="#2F2E41"></path>
                <polygon id="Path" fill="#FFB8B8" points="486.500193 345 477 342.094349 483.978342 305 498 309.288428"></polygon>
                <path d="M469.029201,338.676328 L487.873123,338.679047 L487.874835,350.548657 L457.166221,350.544226 L457.166221,350.544226 C457.165767,347.39621 458.415358,344.377309 460.640098,342.151646 C462.864839,339.925983 465.882489,338.675874 469.029201,338.676328 Z" id="Path" fill="#2F2E41" transform="translate(472.520528, 344.612493) rotate(17.422620) translate(-472.520528, -344.612493) "></path>
                <path d="M562.840367,265.887059 C562.613427,263.983084 562.205459,262.10492 561.621967,260.277902 L559.786352,257.976709 L555.008942,252 L554.800724,252.00799 C554.447685,252.023971 552.980731,252.103873 550.712592,252.279659 L550.688328,252.279659 C549.285565,252.391522 547.570074,252.535347 545.622486,252.719123 C545.109364,252.775054 544.57237,252.822996 544.019329,252.878928 L544.019329,261.220751 L554.039064,261.220751 C555.046236,261.222075 555.896519,261.96712 556.026979,262.962627 C556.034811,263.050519 556.043011,263.130422 556.043011,263.218315 C556.042569,264.321356 555.14563,265.215437 554.039064,265.215878 L495.844362,265.215878 C495.102867,265.706562 494.390872,266.240161 493.712042,266.813928 C491.661875,268.395882 490.184565,270.600581 489.503753,273.094267 C486.105259,287.988098 479.909071,315.762215 478.081255,323.920303 C477.811719,325.17072 478.222939,326.470201 479.163459,327.340131 C479.504645,327.657207 479.905082,327.90427 480.341956,328.067244 L487.572197,330.76795 C487.869343,330.877469 488.178939,330.949932 488.493932,330.983687 C488.533859,330.983687 488.565954,330.991677 488.606265,330.991677 C488.680824,330.998332 488.755686,331.001 488.830531,331 C490.32679,330.993727 491.666349,330.07393 492.205178,328.682494 L497.912515,313.756702 L506.706011,290.744775 L510.184735,281.643877 C514.216508,282.586727 548.043303,290.049623 559.369499,278.024293 C560.486862,276.839518 561.368257,275.453935 561.966807,273.941234 C562.919943,271.369419 563.220043,268.602512 562.840367,265.887059 L562.840367,265.887059 Z" id="Path" fill="#2F2E41"></path>
                <path d="M572.264527,267.467285 C572.090412,266.756149 571.892311,266.021042 571.662482,265.277945 L565.125138,257 L564.919303,257.00799 C564.506848,257.031961 562.54982,257.135835 559.546573,257.383534 C556.139388,257.671185 551.376826,258.134622 546.02809,258.861739 C545.869847,258.877719 545.703474,258.90169 545.544834,258.925661 C545.02172,258.997574 544.490872,259.069486 543.960023,259.149389 L543.960023,260.627594 L553.86509,260.627594 C554.860735,260.628917 555.701288,261.373966 555.830255,262.369478 C555.837997,262.457371 555.846103,262.537274 555.846103,262.625167 C555.845666,263.728214 554.958992,264.6223 553.86509,264.622741 L518.856488,264.622741 C517.327392,265.126129 515.853272,265.653488 514.442925,266.220799 C507.041987,269.177208 501.502883,273.052501 500.369609,278.094376 C499.989254,279.788319 499.569462,281.650057 499.125667,283.63165 C497.477401,290.998701 495.47279,300.019743 493.65815,308.217785 L493.65815,308.225775 C493.285553,309.919718 492.913336,311.565718 492.556596,313.163777 C491.042983,320.03543 489.759579,325.860354 489.077833,328.920637 C489.061985,329.00853 489.046494,329.088433 489.030241,329.176326 L489.030241,329.192307 C488.951246,329.811363 489.027608,330.440511 489.252329,331.022084 L489.260071,331.030027 L489.260071,331.038017 C489.478025,331.594974 489.832534,332.087076 490.290427,332.46828 C490.596491,332.722884 490.94178,332.925312 491.31263,333.067552 L498.460126,335.768271 C498.858123,335.918336 499.279161,335.996767 499.70406,336 C500.299684,336.001442 500.885902,335.85022 501.40766,335.560523 C502.15673,335.151297 502.735789,334.485214 503.040055,333.682804 L518.42851,292.964266 L520.813848,286.643943 C524.799481,287.586798 558.239151,295.041742 569.435728,283.02434 C571.647701,280.610164 572.909979,277.465022 572.985703,274.179084 C573.063896,271.918589 572.821045,269.658437 572.264527,267.467285 L572.264527,267.467285 Z" id="Path" fill="#2F2E41"></path>
                <path d="M571.862135,197.524714 C571.73482,197.372894 571.598932,197.221074 571.455645,197.077244 C567.147228,192.538727 560.929789,190.343169 554.733693,191.172236 C552.069184,191.522957 549.429675,192.043396 546.831198,192.730391 C543.475317,193.595033 540.40255,195.321888 537.916354,197.740419 C534.000823,201.544651 531.85727,206.820229 532.007387,212.2832 C532.039284,213.377904 532.047106,214.49658 532.031533,215.631236 C532.031533,216.158612 532.023351,216.693978 532.015584,217.229344 L539.877977,217.229344 C540.219131,217.228348 540.559159,217.268591 540.890693,217.349202 C542.865638,217.822162 544.260051,219.589408 544.263756,221.624141 L544.263756,258.796129 C544.797959,258.94795 545.332163,259.09977 545.858584,259.259581 C546.026041,259.315466 546.185651,259.36341 546.344895,259.411353 C546.5283,259.467287 546.711706,259.52322 546.88728,259.579154 C548.505866,260.082558 550.087328,260.615261 551.631664,261.177262 L554.231433,261.177262 C555.233372,261.178586 556.079238,261.923658 556.209021,262.9192 C556.751406,263.134944 557.277436,263.350689 557.795676,263.566433 C559.637751,264.333525 561.38404,265.100617 562.987042,265.843737 C565.148034,266.834564 567.069898,267.777447 568.680691,268.600473 C569.187157,268.859105 569.746806,268.995899 570.315231,269 C571.061668,268.99756 571.787913,268.756855 572.388588,268.312814 C572.513221,268.220642 572.632922,268.121955 572.747193,268.017164 C573.613653,267.203262 574.022624,266.012809 573.839738,264.836929 C573.016574,258.560227 572.776346,252.220531 573.122145,245.899351 C573.345253,240.585642 573.823782,235.136095 574.44598,229.870329 C574.78083,227.017707 575.1554,224.221018 575.546316,221.528206 C575.921276,218.955253 576.319983,216.486176 576.710541,214.152939 C577.74949,208.157014 575.959185,202.016935 571.862135,197.524714 L571.862135,197.524714 Z" id="Path" fill="#6C63FF"></path>
                <path d="M539.412625,197.759676 C538.999178,197.582988 538.573709,197.435586 538.139393,197.318568 C533.700811,196.128935 529.056968,198.358016 527.228834,202.555722 L521.692877,215.275669 L521,216.879698 L540.121683,216.879698 C540.466425,216.878698 540.810029,216.91909 541.145051,217 L541.78954,215.516273 L544.239178,209.886133 C546.265183,205.210868 544.105846,199.785648 539.412625,197.759676 L539.412625,197.759676 Z" id="Path" fill="#6C63FF"></path>
                <circle id="Oval" fill="#FFB8B8" cx="556.5" cy="165.5" r="19.5"></circle>
                <path d="M574.855056,221.112848 L563.82809,221.41915 L563.025843,229.358818 L562.844944,231.196629 L545.573034,239.144358 L544,239.869809 L544,254 L545.573034,253.540547 L550.543687,252.089643 L550.567494,252.089643 L572.463998,245.697606 L572.715549,245.625061 C576.348788,244.549838 578.862408,241.157836 578.897847,237.282364 L578.952762,227.907914 L579,221 L574.855056,221.112848 Z" id="Path" fill="#FFB8B8"></path>
                <path d="M579.744861,205.60913 C579.427285,200.553668 574.977678,196.707085 569.806384,197.017546 C564.63509,197.328008 560.700373,201.677949 561.017948,206.733412 L562.265686,226.635586 C562.333996,227.695971 562.880932,228.671801 563.758358,229.298778 C564.447898,229.801319 565.298026,230.047257 566.156267,229.992484 L574.900022,229.466224 L577.550827,229.306752 C578.526499,229.259825 579.44008,228.824804 580.079368,228.102734 C580.149484,228.026977 580.214786,227.947091 580.274907,227.863525 C580.793404,227.185153 581.047826,226.348436 580.992574,225.503331 L579.744861,205.60913 Z" id="Path" fill="#6C63FF"></path>
                <path d="M547.055042,258.828144 L546.02521,258.828144 L546.02521,258.72455 C545.498192,258.796269 544.963382,258.867987 544.428571,258.947675 L544.428571,260.42189 L551.804842,260.42189 C550.25613,259.864073 548.672863,259.332825 547.055042,258.828144 Z M547.055042,258.828144 L546.02521,258.828144 L546.02521,258.72455 C545.498192,258.796269 544.963382,258.867987 544.428571,258.947675 L544.428571,260.42189 L551.804842,260.42189 C550.25613,259.864073 548.672863,259.332825 547.055042,258.828144 Z M554.407563,258.828144 L546.02521,258.828144 L546.02521,220.97668 C546.019224,218.314708 544.252647,215.976603 541.6902,215.239195 C541.154374,215.077956 540.597453,214.997383 540.037815,215.000065 L468.987395,215.000065 C465.6823,215.004111 463.003985,217.677573 463,220.97668 L463,260.023453 C463.001163,263.323728 465.68113,265.998839 468.987395,266 L554.407563,266 C556.238506,265.996909 557.774809,264.621119 557.975835,262.80454 C557.99209,262.675019 558,262.544605 558,262.414072 C557.997006,260.434845 556.39035,258.831115 554.407531,258.828144 L554.407563,258.828144 Z M556.403361,262.414072 C556.403361,263.514142 555.509629,264.406254 554.407563,264.406254 L468.987395,264.406254 C466.563039,264.40483 464.598066,262.443417 464.596639,260.023453 L464.596639,220.97668 C464.598083,218.556723 466.563046,216.595321 468.987395,216.593861 L540.037815,216.593861 C540.379356,216.592885 540.71977,216.633018 541.051681,216.71341 C543.028867,217.185078 544.424863,218.9475 544.428571,220.97668 L544.428571,260.42189 L554.407563,260.42189 C555.410639,260.423209 556.257465,261.166248 556.387395,262.159073 C556.395147,262.246713 556.403361,262.326424 556.403361,262.414072 L556.403361,262.414072 Z M547.055042,258.828144 L546.02521,258.828144 L546.02521,258.72455 C545.498192,258.796269 544.963382,258.867987 544.428571,258.947675 L544.428571,260.42189 L551.804842,260.42189 C550.25613,259.864073 548.672863,259.332825 547.055042,258.828144 Z" id="Shape" fill="#3F3D56"></path>
                <circle id="Oval" fill="#6C63FF" cx="504" cy="241" r="5"></circle>
                <path d="M551.899409,157.281261 C547.344664,161.364931 541.23773,165.748133 535.660397,162.756275 C531.998227,160.791773 530.367786,156.483685 531.22309,152.405567 C532.761179,145.071926 539.078199,141.10942 545.194562,137.906261 C553.145822,133.742157 561.920212,130.110769 570.823816,131.193327 C579.72742,132.275884 588.426511,139.659614 588.006068,148.650829 C587.667966,155.881383 581.784858,162.626706 583.647181,169.619749 C585.521465,176.657688 594.033273,179.383035 601.283258,179.741062 C608.533244,180.099088 616.514237,179.47871 622.265471,183.923339 C629.602236,189.5933 629.484742,201.449384 624.261807,209.123335 C619.038873,216.797286 610.218982,221.115431 601.555995,224.398031 C590.078054,228.747266 577.462075,231.889711 565.614223,228.692169 C553.76637,225.494626 543.394187,214.086835 545.13195,201.897893 C545.865976,196.749302 548.564945,192.127563 551.169526,187.63113 C553.774107,183.134697 556.393954,178.446258 556.940888,173.274277 C557.396661,168.96429 556.032545,164.206554 552.865189,161.430221 C551.688965,160.438309 551.283857,158.798561 551.862107,157.370061 L551.899409,157.281261 Z" id="Path" fill="#2F2E41"></path>
                <path d="M0.951397521,361 L617.051356,361 C617.575277,361 618,360.552282 618,360 C618,359.447718 617.575277,359 617.051356,359 L0.951397521,359 C0.611824662,358.998967 0.297624505,359.189338 0.127553359,359.499164 C-0.0425177865,359.80899 -0.0425177865,360.19101 0.127553359,360.500836 C0.297624505,360.810662 0.611824662,361.001033 0.951397521,361 Z" id="Path" fill="#3F3D56"></path>
                <path d="M32,282.185185 L32,283.814815 C32.0047947,289.437913 36.4791386,293.995117 42,294 L113.99998,294 C119.521983,293.997927 123.997942,289.439078 124,283.814815 L124,282.185185 C124.004962,279.801731 123.183184,277.493087 121.679666,275.666667 C121.179322,275.06022 120.613073,274.513518 119.99177,274.037037 C119.99177,274.037037 80.4077801,273.124444 80.4077801,272 L42,272 C36.4803195,272.007783 32.007641,276.56329 32,282.185185 L32,282.185185 Z" id="Path" fill="#3F3D56"></path>
                <rect id="Rectangle" fill="#3F3D56" transform="translate(78.000000, 326.500000) rotate(-180.000000) translate(-78.000000, -326.500000) " x="73" y="293" width="10" height="67"></rect>
                <path d="M43,360.33689 C43,361.494431 58.670033,360.784621 78,360.784621 C97.329967,360.784621 113,361.494431 113,360.33689 C113,359.179348 97.329967,350 78,350 C58.670033,350 43,359.17934 43,360.33689 Z" id="Path" fill="#3F3D56"></path>
                <polygon id="Path" fill="#A0616A" points="131.001547 352 140.487565 352 145 314 131 314.000804"></polygon>
                <path d="M128.232536,348.855503 L158.93976,348.855503 L158.93976,360.725659 L140.096699,360.725659 C133.544303,360.725659 128.232536,355.411209 128.232536,348.855503 L128.232536,348.855503 L128.232536,348.855503 Z" id="Path" fill="#2F2E41" transform="translate(143.586148, 354.790581) rotate(179.997380) translate(-143.586148, -354.790581) "></path>
                <polygon id="Path" fill="#A0616A" points="145.499807 346 155 343.094349 148.021658 306 134 310.288428"></polygon>
                <path d="M143.814975,339.288091 L174.523597,339.28366 L174.521885,351.153271 L155.677956,351.155989 C149.125267,351.156935 143.81403,345.843496 143.814975,339.288091 L143.814975,339.288091 L143.814975,339.288091 Z" id="Path" fill="#2F2E41" transform="translate(159.169286, 345.219825) rotate(162.577380) translate(-159.169286, -345.219825) "></path>
                <path d="M138.957763,328.684817 L121.187694,281.64469 C117.201037,282.588863 83.7681393,290.049398 72.5705182,278.0264 C68.7329953,273.905587 67.9845655,267.935454 70.3459249,260.281409 L76.8808074,252 L77.0839162,252.010923 C79.5547613,252.142013 137.646771,255.425555 141.628983,273.09642 C144.986569,287.99407 151.118506,315.769152 152.917715,323.927277 C153.294714,325.674298 152.346208,327.436282 150.688067,328.06916 L143.541711,330.771364 C143.143548,330.922532 142.721597,331 142.29615,331 C140.815339,331 139.487853,330.079181 138.957763,328.684817 L138.957763,328.684817 Z" id="Path" fill="#2F2E41"></path>
                <path d="M128.957763,334.684817 L111.187694,287.64469 C107.200839,288.588863 73.7681393,296.048615 62.5705182,284.0264 C58.7329953,279.905587 57.9845655,273.935454 60.3459249,266.281409 L66.8808074,258 L67.0839162,258.010923 C69.5547613,258.142013 127.646771,261.425555 131.628983,279.09642 C134.986569,293.99407 141.118506,321.769152 142.917715,329.927277 C143.294714,331.674298 142.346208,333.436282 140.688067,334.06916 L133.541711,336.771364 C133.143548,336.922532 132.721597,337 132.29615,337 C130.815339,337 129.487853,336.079181 128.957763,334.684817 L128.957763,334.684817 Z" id="Path" fill="#2F2E41"></path>
                <path d="M112.693686,243 C107.339161,242.998003 102.3806,240.178125 99.6401252,235.576587 L94,226.018935 L107.4058,218.689508 L113.098031,226.496639 L151.720291,222.426198 C151.908287,222.08609 152.11975,221.759503 152.353145,221.448809 L152.353145,221.448809 C153.852001,219.475852 156.118766,218.233434 158.587766,218.031605 C161.068657,217.818727 163.520488,218.688624 165.312846,220.417628 C168.237063,223.222953 168.846997,227.672369 166.785643,231.161558 C165.518628,233.297276 163.401028,234.790935 160.964489,235.267536 C158.52795,235.744138 156.00387,235.15842 154.025944,233.657432 C153.799283,233.483968 153.581788,233.298838 153.374339,233.10279 L116.382504,242.537449 C115.176993,242.844909 113.937764,243.000299 112.693686,243 Z" id="Path" fill="#A0616A"></path>
                <path d="M59.6089961,268.313955 C58.508773,267.521345 57.946936,266.17823 58.1552039,264.83855 C60.3795155,250.179094 57.8202945,229.179142 55.2815702,214.143497 C54.2277495,207.957241 56.1671234,201.637567 60.5098508,197.106541 C64.8525781,192.575515 71.0853566,190.368696 77.312549,191.157266 C79.9843177,191.510112 82.6310597,192.031725 85.2368915,192.718973 L85.2368915,192.718973 C94.1523181,194.963568 100.321704,203.084986 100.091376,212.273508 C99.7117803,226.78234 102.658591,244.8852 103.943182,251.99445 C104.120391,252.981656 103.878947,253.998074 103.276689,254.800217 C102.685931,255.594299 101.787335,256.102183 100.802172,256.198809 C86.5663367,257.651259 71.214544,264.591958 63.3306033,268.599603 C62.8239126,268.860974 62.2623414,268.998211 61.6921813,269 C60.9426537,268.997539 60.2132457,268.757326 59.6089961,268.313955 Z" id="Path" fill="#CCCCCC"></path>
                <path d="M97.7308027,230.748262 C96.8375714,230.402985 96.1218595,229.720357 95.7432386,228.852573 L87.7633492,210.711858 C86.4488269,207.729967 86.8517162,204.284349 88.8201051,201.674196 C90.7884941,199.064043 94.0229908,197.686359 97.3040076,198.060609 C100.585024,198.434859 103.413519,200.504119 104.722989,203.488162 L112.703071,221.628877 C113.493453,223.432255 112.651742,225.524953 110.821272,226.307492 L100.497972,230.705027 C99.6185221,231.082737 98.6220283,231.098309 97.7308348,230.74827 L97.7308027,230.748262 Z" id="Path" fill="#CCCCCC"></path>
                <circle id="Oval" fill="#A0616A" cx="75.5" cy="165.5" r="19.5"></circle>
                <path d="M63.7902313,182.907102 C63.2265876,183.553414 62.4237033,183.945735 61.5642914,183.994783 C60.7048795,184.043831 59.8620453,183.745434 59.2275932,183.167498 C54.8361373,179.636338 51.3532073,175.118218 49.0663625,169.986164 C46.5060167,163.923897 46.1308004,156.525876 49.0447126,150.843505 C51.5079869,146.039905 55.9298688,142.982168 60.3443015,140.483058 C62.0365949,139.423833 63.8911285,138.645213 65.835198,138.177723 C67.8208368,137.730035 69.9044646,138.137037 71.5716119,139.298235 C73.3542636,140.644835 74.2421109,142.85957 73.8793278,145.054833 C75.8985639,142.412439 78.6208046,140.382964 81.739097,139.195246 C83.6523865,138.377258 85.7900332,138.235033 87.7960493,138.792258 C90.6310118,139.732216 92.7294375,142.575906 93.8971594,145.631174 C94.8415091,147.970279 95.1873869,150.505449 94.9038463,153.009856 C94.6539705,155.426578 93.4164875,157.635504 91.480681,159.120257 C89.1682583,160.705224 86.1890756,160.544249 83.4997928,159.842759 C80.81051,159.141269 78.2004817,157.951898 75.4642748,157.620294 C72.7280679,157.288689 69.6956105,158.007638 68.0653752,160.431916 C66.9173227,162.139148 66.6466672,164.388097 66.4124156,166.531835 L65.194033,177.681939 C65.1079623,179.277192 64.7619848,180.848019 64.1695772,182.333229 C64.0693331,182.540399 63.9417633,182.733386 63.7902313,182.907102 L63.7902313,182.907102 Z" id="Path" fill="#2F2E41"></path>
                <path d="M134.084014,304 L102.40544,304 C101.365191,304.00327 100.381581,303.528893 99.7396976,302.714347 C99.08363,301.888697 98.8470259,300.808063 99.0984675,299.78568 C102.061638,287.435424 102.061557,274.564539 99.0982291,262.21432 C98.8469901,261.191899 99.0836699,260.111321 99.7396976,259.285653 C100.381581,258.471107 101.365191,257.99673 102.40544,258 L134.084014,258 C135.755635,258.003366 137.179632,259.209155 137.450374,260.85053 C139.516542,274.204845 139.516542,287.795155 137.450374,301.14947 C137.179632,302.790845 135.755635,303.996634 134.084014,304 L134.084014,304 Z" id="Path" fill="#CCCCCC"></path>
                <path d="M110,274.490198 L110,273.509802 C110.00141,272.124304 111.048219,271.001512 112.339956,271 L128.660044,271 C129.951781,271.001512 130.99859,272.124304 131,273.509802 L131,274.490198 C130.99859,275.875696 129.951781,276.998488 128.660044,277 L112.339956,277 C111.048219,276.998488 110.00141,275.875696 110,274.490198 Z" id="Path" fill="#FFFFFF"></path>
                <path d="M110,284.490366 L110,283.509634 C110.00141,282.124228 111.048219,281.001512 112.339956,281 L128.660044,281 C129.951781,281.001512 130.99859,282.124228 131,283.509634 L131,284.490366 C130.99859,285.875772 129.951781,286.998488 128.660044,287 L112.339956,287 C111.048219,286.998488 110.00141,285.875772 110,284.490366 Z" id="Path" fill="#FFFFFF"></path>
                <path d="M120.758323,245.686833 C120.085836,244.843065 119.843239,243.738833 120.100814,242.694038 C123.138303,230.075329 123.138221,216.924586 120.100574,204.305914 C119.843213,203.261077 120.085898,202.1569 120.758355,201.31312 C121.416478,200.481166 122.424598,199.996692 123.490732,200 L155.960942,200 C157.674437,200.003206 159.134162,201.23532 159.411454,202.912501 C161.529515,216.557106 161.529515,230.442894 159.411454,244.0875 C159.134162,245.76468 157.674437,246.996794 155.960942,247 L123.4907,247 C122.424557,247.003296 121.416436,246.518804 120.758323,245.686833 L120.758323,245.686833 Z" id="Path" fill="#6C63FF"></path>
                <path d="M149.586773,218 L132.413219,218 C131.081038,217.998509 130.001454,216.89147 130,215.525409 L130,214.474591 C130.001454,213.10853 131.081038,212.001491 132.413219,212 L149.586781,212 C150.918962,212.001491 151.998546,213.10853 152,214.474591 L152,215.525409 C151.998546,216.891473 150.918957,217.998513 149.586773,218 L149.586773,218 Z" id="Path" fill="#FFFFFF"></path>
                <path d="M149.586773,228 L132.413219,228 C131.081038,227.998509 130.001454,226.891481 130,225.525433 L130,224.474567 C130.001454,223.108519 131.081038,222.001491 132.413219,222 L149.586781,222 C150.918962,222.001491 151.998546,223.108519 152,224.474567 L152,225.525433 C151.998546,226.891484 150.918957,227.998513 149.586773,228 L149.586773,228 Z" id="Path" fill="#FFFFFF"></path>
                <path d="M105.360852,263.508513 C103.015831,262.694393 101.129655,260.928223 100.172813,258.650559 C100.063616,258.387751 99.9684327,258.119408 99.8876582,257.846648 L58.3432035,246.097176 C54.6772785,245.04539 52.1400329,241.72857 52.1013798,237.937536 L52,222 L67.3132867,222.407171 L68.3112286,231.980172 L103.836017,247.827148 C104.17047,247.628577 104.518437,247.453394 104.877392,247.302869 L104.877582,247.302869 C108.476064,245.803771 112.638736,246.85566 115.079162,249.880766 C117.519588,252.905872 117.646797,257.171638 115.390918,260.335002 C113.135039,263.498365 109.042352,264.793291 105.360852,263.508513 Z" id="Path" fill="#A0616A"></path>
                <path d="M51.9209009,229.104454 C51.2737867,228.392886 50.9448967,227.457856 51.0075592,226.507834 L52.2586676,206.618753 C52.4590015,203.346166 54.4325153,200.427324 57.434338,198.963896 C60.4361607,197.500469 64.0091695,197.715309 66.8047898,199.527329 C69.60041,201.339349 71.1929199,204.472611 70.9812521,207.744516 L69.7303802,227.633677 C69.6033719,229.60956 67.8641659,231.112333 65.8420674,230.993401 L54.4454159,230.308586 C53.4730868,230.253015 52.5639745,229.819387 51.9209254,229.104454 L51.9209009,229.104454 Z" id="Path" fill="#CCCCCC"></path>
                <path d="M231.8,122 L166.2,122 C162.225434,121.995487 159.004545,118.797174 159,114.850467 L159,44.1495327 C159.004541,40.202824 162.225432,37.0045091 166.2,37 L231.8,37 C235.774566,37.0045134 238.995455,40.2028259 239,44.1495327 L239,114.850467 C238.99545,118.797172 235.774564,121.995482 231.8,122 L231.8,122 Z M166.2,38.588785 C163.10864,38.5922217 160.603461,41.0798412 160.6,44.1495327 L160.6,114.850467 C160.603465,117.920157 163.108642,120.407774 166.2,120.411215 L231.8,120.411215 C234.891356,120.40777 237.39653,117.920155 237.4,114.850467 L237.4,44.1495327 C237.396535,41.079843 234.891358,38.5922261 231.8,38.588785 L166.2,38.588785 Z" id="Shape" fill="#3F3D56"></path>
                <path d="M350.8,122 L285.2,122 C281.225434,121.995487 278.004545,118.797174 278,114.850467 L278,44.1495327 C278.004541,40.202824 281.225432,37.0045091 285.2,37 L350.8,37 C354.774566,37.0045134 357.995455,40.2028259 358,44.1495327 L358,114.850467 C357.99545,118.797172 354.774564,121.995482 350.8,122 Z M285.2,38.588785 C282.10864,38.5922217 279.603461,41.0798412 279.6,44.1495327 L279.6,114.850467 C279.603465,117.920157 282.108642,120.407774 285.2,120.411215 L350.8,120.411215 C353.891356,120.40777 356.39653,117.920155 356.4,114.850467 L356.4,44.1495327 C356.396535,41.079843 353.891358,38.5922261 350.8,38.588785 L285.2,38.588785 Z" id="Shape" fill="#3F3D56"></path>
                <path d="M179.294118,66 L172.705882,66 C170.660121,65.9977307 169.002269,64.3398792 169,62.2941176 L169,55.7058824 C169.002269,53.6601208 170.660121,52.0022693 172.705882,52 L179.294118,52 C181.339879,52.0022693 182.997731,53.6601208 183,55.7058824 L183,62.2941176 C182.997731,64.3398792 181.339879,65.9977307 179.294118,66 Z" id="Path" fill="#6C63FF"></path>
                <path d="M179.294118,86 L172.705882,86 C170.660121,85.9977307 169.002269,84.3398792 169,82.2941176 L169,75.7058824 C169.002269,73.6601208 170.660121,72.0022693 172.705882,72 L179.294118,72 C181.339879,72.0022693 182.997731,73.6601208 183,75.7058824 L183,82.2941176 C182.997731,84.3398792 181.339879,85.9977307 179.294118,86 Z" id="Path" fill="#CCCCCC"></path>
                <path d="M226.577811,62 L196.422181,62 C195.085052,61.9985089 194.00146,60.8914699 194,59.5254092 L194,58.4745908 C194.00146,57.1085301 195.085052,56.0014911 196.422181,56 L226.577819,56 C227.914948,56.0014911 228.99854,57.1085301 229,58.4745908 L229,59.5254092 C228.99854,60.8914731 227.914943,61.9985134 226.577811,62 Z" id="Path" fill="#6C63FF"></path>
                <path d="M299.294118,65 L292.705882,65 C290.660121,64.9977307 289.002269,63.3398792 289,61.2941176 L289,54.7058824 C289.002269,52.6601208 290.660121,51.0022693 292.705882,51 L299.294118,51 C301.339879,51.0022693 302.997731,52.6601208 303,54.7058824 L303,61.2941176 C302.997731,63.3398792 301.339879,64.9977307 299.294118,65 L299.294118,65 Z" id="Path" fill="#CCCCCC"></path>
                <path d="M346.577819,61 L316.422181,61 C315.085052,60.9985089 314.00146,59.8914699 314,58.5254092 L314,57.4745908 C314.001464,56.108532 315.085054,55.0014957 316.422181,55 L346.577819,55 C347.914946,55.0014957 348.998536,56.108532 349,57.4745908 L349,58.5254092 C348.99854,59.8914699 347.914948,60.9985089 346.577819,61 Z" id="Path" fill="#CCCCCC"></path>
                <path d="M345.611128,80 L290.388872,80 C289.070131,79.9985089 288.001439,78.8914699 288,77.5254092 L288,76.4745908 C288.001444,75.108532 289.070133,74.0014957 290.388872,74 L345.611128,74 C346.929867,74.0014957 347.998556,75.108532 348,76.4745908 L348,77.5254092 C347.998561,78.8914699 346.929869,79.9985089 345.611128,80 Z" id="Path" fill="#6C63FF"></path>
                <path d="M345.611128,94 L290.388872,94 C289.070131,93.9985089 288.001439,92.8914699 288,91.5254092 L288,90.4745908 C288.001444,89.108532 289.070133,88.0014957 290.388872,88 L345.611128,88 C346.929867,88.0014957 347.998556,89.108532 348,90.4745908 L348,91.5254092 C347.998561,92.8914699 346.929869,93.9985089 345.611128,94 Z" id="Path" fill="#CCCCCC"></path>
                <path d="M345.611128,107 L290.388872,107 C289.070131,106.998509 288.001439,105.89147 288,104.525409 L288,103.474591 C288.001444,102.108532 289.070133,101.001496 290.388872,101 L345.611128,101 C346.929867,101.001496 347.998556,102.108532 348,103.474591 L348,104.525409 C347.998561,105.89147 346.929869,106.998509 345.611128,107 Z" id="Path" fill="#CCCCCC"></path>
                <path d="M470.8,122 L405.2,122 C401.225434,121.995487 398.004545,118.797174 398,114.850467 L398,44.1495327 C398.004541,40.202824 401.225432,37.0045091 405.2,37 L470.8,37 C474.774566,37.0045134 477.995455,40.2028259 478,44.1495327 L478,114.850467 C477.99545,118.797172 474.774564,121.995482 470.8,122 Z M405.2,38.588785 C402.10864,38.5922217 399.603461,41.0798412 399.6,44.1495327 L399.6,114.850467 C399.603465,117.920157 402.108642,120.407774 405.2,120.411215 L470.8,120.411215 C473.891356,120.40777 476.39653,117.920155 476.4,114.850467 L476.4,44.1495327 C476.396535,41.079843 473.891358,38.5922261 470.8,38.588785 L405.2,38.588785 Z" id="Shape" fill="#3F3D56"></path>
                <path d="M465.577819,61 L435.422181,61 C434.085052,60.9985089 433.00146,59.8914699 433,58.5254092 L433,57.4745908 C433.001464,56.108532 434.085054,55.0014957 435.422181,55 L465.577819,55 C466.914946,55.0014957 467.998536,56.108532 468,57.4745908 L468,58.5254092 C467.99854,59.8914699 466.914948,60.9985089 465.577819,61 Z" id="Path" fill="#CCCCCC"></path>
                <path d="M465.611128,80 L410.388872,80 C409.070131,79.9985089 408.001439,78.8914699 408,77.5254092 L408,76.4745908 C408.001444,75.108532 409.070133,74.0014957 410.388872,74 L465.611128,74 C466.929867,74.0014957 467.998556,75.108532 468,76.4745908 L468,77.5254092 C467.998561,78.8914699 466.929869,79.9985089 465.611128,80 Z" id="Path" fill="#CCCCCC"></path>
                <path d="M465.611128,94 L410.388872,94 C409.070131,93.9985089 408.001439,92.8914699 408,91.5254092 L408,90.4745908 C408.001444,89.108532 409.070133,88.0014957 410.388872,88 L465.611128,88 C466.929867,88.0014957 467.998556,89.108532 468,90.4745908 L468,91.5254092 C467.998561,92.8914699 466.929869,93.9985089 465.611128,94 Z" id="Path" fill="#CCCCCC"></path>
                <path d="M465.611128,107 L410.388872,107 C409.070131,106.998509 408.001439,105.89147 408,104.525409 L408,103.474591 C408.001444,102.108532 409.070133,101.001496 410.388872,101 L465.611128,101 C466.929867,101.001496 467.998556,102.108532 468,103.474591 L468,104.525409 C467.998561,105.89147 466.929869,106.998509 465.611128,107 Z" id="Path" fill="#CCCCCC"></path>
                <path d="M226.577811,82 L196.422181,82 C195.085052,81.9985089 194.00146,80.8914699 194,79.5254092 L194,78.4745908 C194.00146,77.1085301 195.085052,76.0014911 196.422181,76 L226.577819,76 C227.914948,76.0014911 228.99854,77.1085301 229,78.4745908 L229,79.5254092 C228.99854,80.8914731 227.914943,81.9985134 226.577811,82 Z" id="Path" fill="#CCCCCC"></path>
                <path d="M179.294118,106 L172.705882,106 C170.660121,105.997731 169.002269,104.339879 169,102.294118 L169,95.7058824 C169.002269,93.6601208 170.660121,92.0022693 172.705882,92 L179.294118,92 C181.339879,92.0022693 182.997731,93.6601208 183,95.7058824 L183,102.294118 C182.997731,104.339879 181.339879,105.997731 179.294118,106 Z" id="Path" fill="#CCCCCC"></path>
                <path d="M226.577811,102 L196.422181,102 C195.085052,101.998509 194.00146,100.89147 194,99.5254092 L194,98.4745908 C194.00146,97.1085301 195.085052,96.0014911 196.422181,96 L226.577819,96 C227.914948,96.0014911 228.99854,97.1085301 229,98.4745908 L229,99.5254092 C228.99854,100.891473 227.914943,101.998513 226.577811,102 L226.577811,102 Z" id="Path" fill="#CCCCCC"></path>
                <path d="M422.99734,57 C422.99734,56.9821922 423,56.9649941 423,56.94714 C423,55.104637 422.262532,53.3375917 420.949773,52.0347453 C419.637013,50.731899 417.856522,50 416,50 L416,57 L422.99734,57 Z" id="Path" fill="#6C63FF"></path>
                <path d="M415.002559,58.0532616 L415.002559,51 C411.143122,50.9986456 408.01072,54.1212405 408,57.9806064 C407.989335,61.8399723 411.104388,64.9798748 414.963773,65 C418.823158,65.0199327 421.970634,61.9125306 422,58.0532616 L415.002559,58.0532616 Z" id="Path" fill="#CCCCCC"></path>
            </g>
        </g>
    </g>
</svg>