<?xml version="1.0" encoding="UTF-8"?>
<svg width="26px" height="21px" viewBox="0 0 26 21" version="1.1" xmlns="http://www.w3.org/2000/svg" xmlns:xlink="http://www.w3.org/1999/xlink">
    <title>Shape</title>
    <g id="Page-1" stroke="none" stroke-width="1" fill="none" fill-rule="evenodd">
        <g id="Apple-TV-Copy-2" transform="translate(-1549.000000, -85.000000)" fill="#FFFFFF">
            <g id="Group" transform="translate(1368.000000, 70.000000)">
                <path d="M193.191326,37.6001736 C193.393299,37.8000868 193.797244,38 193.999217,38 C194.403163,38 194.605135,37.8000868 194.807108,37.6001736 L203.697041,29.2007191 C204.100986,28.8008926 204.100986,28.0027895 203.697041,27.3999504 L202.48677,26.2020208 C202.082824,25.8021944 201.071395,25.8021944 200.66745,26.2020208 L196.224049,30.6001116 L196.224049,14.1979296 C196.224049,13.5981899 195.618131,13 195.013778,13 L193.194457,13 C192.386566,13 191.984187,13.5997396 191.984187,14.1979296 L191.984187,30.5970121 L187.335682,26.195822 C186.931736,25.5960823 185.920307,25.5960823 185.516361,26.195822 L184.302959,27.3999504 C183.899014,27.7997768 183.899014,28.59788 184.302959,29.2007191 L193.196023,37.6001736 L193.191326,37.6001736 Z" id="Shape" transform="translate(194.000000, 25.500000) rotate(-90.000000) translate(-194.000000, -25.500000) "></path>
            </g>
        </g>
    </g>
</svg>