<?xml version="1.0" encoding="UTF-8"?>
<svg width="125px" height="153px" viewBox="0 0 125 153" version="1.1" xmlns="http://www.w3.org/2000/svg" xmlns:xlink="http://www.w3.org/1999/xlink">
    <!-- Generator: Sketch 62 (91390) - https://sketch.com -->
    <title>hyderabad</title>
    <desc>Created with Sketch.</desc>
    <g id="Page-1" stroke="none" stroke-width="1" fill="none" fill-rule="evenodd">
        <g id="Apple-TV-Copy-2" transform="translate(-565.000000, -4125.000000)" fill="#1D1D1D" fill-rule="nonzero">
            <g id="hyderabad" transform="translate(564.000000, 4124.000000)">
                <g id="XMLID_95_" transform="translate(50.781000, 96.608000)">
                    <path d="M0.813,4.334 C0.368436455,4.3234484 0.0105515986,3.96556354 0,3.521 L0,0.813 C0.0153558781,0.375357453 0.374588134,0.0285087706 0.8125,0.0285087706 C1.25041187,0.0285087706 1.60964412,0.375357453 1.625,0.813 L1.625,3.521 C1.61447035,3.96518632 1.25717302,4.32292367 0.813,4.334 L0.813,4.334 Z" id="Path_910"></path>
                </g>
                <g id="XMLID_94_" transform="translate(64.811000, 96.608000)">
                    <path d="M0.813,4.334 C0.368436455,4.3234484 0.0105515986,3.96556354 0,3.521 L0,0.813 C0.0153558781,0.375357453 0.374588134,0.0285087706 0.8125,0.0285087706 C1.25041187,0.0285087706 1.60964412,0.375357453 1.625,0.813 L1.625,3.521 C1.61447035,3.96518632 1.25717302,4.32292367 0.813,4.334 L0.813,4.334 Z" id="Path_911"></path>
                </g>
                <g id="XMLID_93_" transform="translate(60.153000, 96.608000)">
                    <path d="M0.813,4.334 C0.368436455,4.3234484 0.0105515986,3.96556354 2.84217094e-14,3.521 L2.84217094e-14,0.813 C0.0153558781,0.375357453 0.374588134,0.0285087706 0.8125,0.0285087706 C1.25041187,0.0285087706 1.60964412,0.375357453 1.625,0.813 L1.625,3.521 C1.61447035,3.96518632 1.25717302,4.32292367 0.813,4.334 L0.813,4.334 Z" id="Path_912"></path>
                </g>
                <g id="XMLID_92_" transform="translate(74.182000, 95.608000)">
                    <path d="M0.813,5.334 C0.368436455,5.3234484 0.0105515986,4.96556354 5.68433104e-14,4.521 L5.68433104e-14,1.813 C-0.0104237317,1.51592363 0.142117701,1.23684208 0.397796507,1.08521302 C0.653475314,0.933583966 0.971524686,0.933583966 1.22720349,1.08521302 C1.4828823,1.23684208 1.63542373,1.51592363 1.625,1.813 L1.625,4.521 C1.61447035,4.96518632 1.25717302,5.32292367 0.813,5.334 L0.813,5.334 Z" id="Path_913"></path>
                </g>
                <g id="XMLID_91_" transform="translate(117.301000, 97.204000)">
                    <path d="M0.813,55.9 C0.368436455,55.8894484 0.0105515986,55.5315635 5.68434189e-14,55.087 L5.68434189e-14,0.813 C0.0153558781,0.375357453 0.374588134,0.0285087706 0.8125,0.0285087706 C1.25041187,0.0285087706 1.60964412,0.375357453 1.625,0.813 L1.625,55.09 C1.61290006,55.5330148 1.25604326,55.8889926 0.813,55.9 L0.813,55.9 Z" id="Path_914"></path>
                </g>
                <g id="XMLID_90_" transform="translate(88.645000, 96.825000)">
                    <path d="M0.813,56.119 C0.368436455,56.1084484 0.0105515986,55.7505635 0,55.306 L0,0.813 C0.0153558781,0.375357453 0.374588134,0.0285087706 0.8125,0.0285087706 C1.25041187,0.0285087706 1.60964412,0.375357453 1.625,0.813 L1.625,55.307 C1.61394604,55.7507959 1.25679589,56.107946 0.813,56.119 Z" id="Path_915"></path>
                </g>
                <g id="XMLID_89_" transform="translate(103.163000, 97.204000)">
                    <path d="M0.813,55.9 C0.368436455,55.8894484 0.0105515986,55.5315635 2.84217094e-14,55.087 L2.84217094e-14,0.813 C0.0153558781,0.375357453 0.374588134,0.0285087706 0.8125,0.0285087706 C1.25041187,0.0285087706 1.60964412,0.375357453 1.625,0.813 L1.625,55.09 C1.61290006,55.5330148 1.25604326,55.8889926 0.813,55.9 L0.813,55.9 Z" id="Path_916"></path>
                </g>
                <g id="XMLID_88_" transform="translate(97.529000, 67.195000)">
                    <path d="M0.813,33.747 C0.368436455,33.7364484 0.0105515986,33.3785635 2.84217094e-14,32.934 L2.84217094e-14,0.813 C0.0153558781,0.375357453 0.374588134,0.0285087706 0.8125,0.0285087706 C1.25041187,0.0285087706 1.60964412,0.375357453 1.625,0.813 L1.625,32.935 C1.61394604,33.3787959 1.25679589,33.735946 0.813,33.747 L0.813,33.747 Z" id="Path_917"></path>
                </g>
                <g id="XMLID_87_" transform="translate(36.318000, 96.825000)">
                    <path d="M0.813,56.119 C0.368436455,56.1084484 0.0105515986,55.7505635 0,55.306 L0,0.813 C0.0153558781,0.375357453 0.374588134,0.0285087706 0.8125,0.0285087706 C1.25041187,0.0285087706 1.60964412,0.375357453 1.625,0.813 L1.625,55.307 C1.61394604,55.7507959 1.25679589,56.107946 0.813,56.119 Z" id="Path_918"></path>
                </g>
                <g id="XMLID_86_" transform="translate(21.801000, 97.313000)">
                    <path d="M0.813,55.794 C0.368436455,55.7834484 0.0105515986,55.4255635 -1.42108547e-14,54.981 L-1.42108547e-14,0.813 C0.0153558781,0.375357453 0.374588134,0.0285087706 0.8125,0.0285087706 C1.25041187,0.0285087706 1.60964412,0.375357453 1.625,0.813 L1.625,54.982 C1.61394604,55.4257959 1.25679589,55.782946 0.813,55.794 L0.813,55.794 Z" id="Path_919"></path>
                </g>
                <g id="XMLID_85_" transform="translate(7.663000, 97.313000)">
                    <path d="M0.813,55.794 C0.368436455,55.7834484 0.0105515986,55.4255635 7.10542736e-15,54.981 L7.10542736e-15,0.813 C0.0153558781,0.375357453 0.374588134,0.0285087706 0.8125,0.0285087706 C1.25041187,0.0285087706 1.60964412,0.375357453 1.625,0.813 L1.625,54.982 C1.61394604,55.4257959 1.25679589,55.782946 0.813,55.794 L0.813,55.794 Z" id="Path_920"></path>
                </g>
                <g id="XMLID_84_" transform="translate(0.000000, 151.319000)">
                    <path d="M124.776,1.625 L1.813,1.625 C1.51592363,1.63542373 1.23684208,1.4828823 1.08521302,1.22720349 C0.933583966,0.971524686 0.933583966,0.653475314 1.08521302,0.397796507 C1.23684208,0.142117701 1.51592363,-0.0104237317 1.813,-5.68435273e-14 L124.776,-5.68435273e-14 C125.073076,-0.0104237317 125.352158,0.142117701 125.503787,0.397796507 C125.655416,0.653475314 125.655416,0.971524686 125.503787,1.22720349 C125.352158,1.4828823 125.073076,1.63542373 124.776,1.625 L124.776,1.625 Z" id="Path_921"></path>
                </g>
                <g id="XMLID_83_" transform="translate(19.609000, 53.165000)">
                    <path d="M85.883,1.625 L1.813,1.625 C1.51592363,1.63542373 1.23684208,1.4828823 1.08521302,1.22720349 C0.933583966,0.971524686 0.933583966,0.653475314 1.08521302,0.397796507 C1.23684208,0.142117701 1.51592363,-0.0104237317 1.813,-1.42110716e-14 L85.883,-1.42110716e-14 C86.1800764,-0.0104237317 86.4591579,0.142117701 86.610787,0.397796507 C86.762416,0.653475314 86.762416,0.971524686 86.610787,1.22720349 C86.4591579,1.4828823 86.1800764,1.63542373 85.883,1.625 L85.883,1.625 Z" id="Path_922"></path>
                </g>
                <g id="XMLID_82_" transform="translate(105.167000, 49.481000)">
                    <path d="M0.813,18.526 C0.368436455,18.5154484 0.0105515986,18.1575635 2.84217094e-14,17.713 L2.84217094e-14,0.813 C0.0153558781,0.375357453 0.374588134,0.0285087706 0.8125,0.0285087706 C1.25041187,0.0285087706 1.60964412,0.375357453 1.625,0.813 L1.625,17.713 C1.61447035,18.1571863 1.25717302,18.5149237 0.813,18.526 L0.813,18.526 Z" id="Path_923"></path>
                </g>
                <g id="XMLID_81_" transform="translate(115.297000, 48.481000)">
                    <path d="M0.813,19.526 C0.368436455,19.5154484 0.0105515986,19.1575635 5.6843202e-14,18.713 L5.6843202e-14,1.813 C-0.0104237317,1.51592363 0.142117701,1.23684208 0.397796507,1.08521302 C0.653475314,0.933583966 0.971524686,0.933583966 1.22720349,1.08521302 C1.4828823,1.23684208 1.63542373,1.51592363 1.625,1.813 L1.625,18.713 C1.61447035,19.1571863 1.25717302,19.5149237 0.813,19.526 L0.813,19.526 Z" id="Path_924"></path>
                </g>
                <g id="XMLID_80_" transform="translate(100.996000, 39.243000)">
                    <path d="M19.23,11.321 L0.813,11.321 C0.368436455,11.3104484 0.0105515986,10.9525635 5.68434189e-14,10.508 L5.68434189e-14,0.808 C0.0105515986,0.363436455 0.368436455,0.00555159857 0.813,-0.005 L19.23,-0.005 C19.6745635,0.00555159857 20.0324484,0.363436455 20.043,0.808 L20.043,10.508 C20.0324484,10.9525635 19.6745635,11.3104484 19.23,11.321 L19.23,11.321 Z M1.63,9.696 L18.422,9.696 L18.422,1.625 L1.625,1.625 L1.63,9.696 Z" id="Path_925"></path>
                </g>
                <g id="XMLID_79_" transform="translate(105.167000, 29.655000)">
                    <path d="M0.813,10.4 C0.368436455,10.3894484 0.0105515986,10.0315635 2.84217094e-14,9.587 L2.84217094e-14,0.813 C0.0153558781,0.375357453 0.374588134,0.0285087706 0.8125,0.0285087706 C1.25041187,0.0285087706 1.60964412,0.375357453 1.625,0.813 L1.625,9.588 C1.61394604,10.0317959 1.25679589,10.388946 0.813,10.4 L0.813,10.4 Z" id="Path_926"></path>
                </g>
                <g id="XMLID_78_" transform="translate(115.297000, 28.655000)">
                    <path d="M0.813,11.4 C0.368436455,11.3894484 0.0105515986,11.0315635 5.6843202e-14,10.587 L5.6843202e-14,1.813 C-0.0104237317,1.51592363 0.142117701,1.23684208 0.397796507,1.08521302 C0.653475314,0.933583966 0.971524686,0.933583966 1.22720349,1.08521302 C1.4828823,1.23684208 1.63542373,1.51592363 1.625,1.813 L1.625,10.588 C1.61394604,11.0317959 1.25679589,11.388946 0.813,11.4 L0.813,11.4 Z" id="Path_927"></path>
                </g>
                <g id="XMLID_77_" transform="translate(102.513000, 21.043000)">
                    <path d="M16.3,9.425 L0.813,9.425 C0.368436455,9.4144484 0.0105515986,9.05656354 2.84217094e-14,8.612 L2.84217094e-14,0.812 C0.0105515986,0.367436455 0.368436455,0.00955159857 0.813,-0.001 L16.3,-0.001 C16.7445635,0.00955159857 17.1024484,0.367436455 17.113,0.812 L17.113,8.612 C17.1024484,9.05656354 16.7445635,9.4144484 16.3,9.425 L16.3,9.425 Z M1.625,7.8 L15.492,7.8 L15.492,1.625 L1.625,1.625 L1.625,7.8 Z" id="Path_928"></path>
                </g>
                <g id="XMLID_76_" transform="translate(104.817000, 13.080000)">
                    <path d="M10.913,1.625 L1.813,1.625 C1.51592363,1.63542373 1.23684208,1.4828823 1.08521302,1.22720349 C0.933583966,0.971524686 0.933583966,0.653475314 1.08521302,0.397796507 C1.23684208,0.142117701 1.51592363,-0.0104237317 1.813,0 L10.913,0 C11.2100764,-0.0104237317 11.4891579,0.142117701 11.640787,0.397796507 C11.792416,0.653475314 11.792416,0.971524686 11.640787,1.22720349 C11.4891579,1.4828823 11.2100764,1.63542373 10.913,1.625 L10.913,1.625 Z" id="Path_929"></path>
                </g>
                <g id="XMLID_75_" transform="translate(110.205000, 0.000000)">
                    <path d="M0.813,7.392 L0.813,7.392 C0.596309968,7.39555078 0.387450752,7.31103637 0.234207191,7.15779281 C0.0809636298,7.00454925 -0.00355077605,6.79569003 2.84217365e-14,6.579 L0.108,1.812 C0.0975762683,1.51492363 0.250117701,1.23584208 0.505796507,1.08421302 C0.761475314,0.932583966 1.07952469,0.932583966 1.33520349,1.08421302 C1.5908823,1.23584208 1.74342373,1.51492363 1.733,1.812 L1.625,6.579 C1.62854362,6.79551378 1.54416517,7.00421576 1.39114056,7.15742882 C1.23811595,7.31064189 1.02951798,7.39527714 0.813,7.392 L0.813,7.392 Z" id="Path_930"></path>
                </g>
                <g id="XMLID_74_" transform="translate(78.918000, 103.410000)">
                    <path d="M3.335,6.686 C2.16205072,6.67800388 1.07893598,6.05638506 0.48032717,5.04765247 C-0.118281642,4.03891988 -0.144965048,2.79038654 0.41,1.757 C0.847917266,0.982525534 1.56228193,0.402104245 2.41,0.132 C3.26699357,-0.117693101 4.18921292,2.93220822e-05 4.956,0.457 C5.73819305,0.847774445 6.31163877,1.55956258 6.527,2.407 C6.7766931,3.26399357 6.65897068,4.18621292 6.202,4.953 C5.60535438,5.98463103 4.5218023,6.63868738 3.331,6.686 L3.335,6.686 Z M3.281,1.648 C3.13448123,1.6356582 2.9869998,1.6540508 2.848,1.702 C2.41730671,1.81264727 2.05925507,2.11120726 1.873,2.515 C1.64572723,2.90901175 1.58656229,3.37790273 1.70883647,3.81602052 C1.83111065,4.25413831 2.12453718,4.62462463 2.523,4.844 L2.523,4.844 C2.92047132,5.05971044 3.3845765,5.11790209 3.823,5.007 C4.25369329,4.89635273 4.61174493,4.59779274 4.798,4.194 C5.06258594,3.81375288 5.12351705,3.32779927 4.961,2.894 C4.85035273,2.46330671 4.55179274,2.10525507 4.148,1.919 C3.89897566,1.73083696 3.59295161,1.6337705 3.281,1.644 L3.281,1.648 Z" id="Path_931"></path>
                </g>
                <g id="XMLID_73_" transform="translate(41.031000, 103.410000)">
                    <path d="M3.358,6.686 C2.78808316,6.68401467 2.22833978,6.53486459 1.733,6.253 C0.940503527,5.80887325 0.356214,5.06889304 0.108,4.195 C-0.114496628,3.35384482 0.0022124384,2.4589556 0.433,1.703 C0.823774445,0.920806951 1.53556258,0.347361225 2.383,0.132 C3.23999357,-0.117693101 4.16221292,2.93220822e-05 4.929,0.457 C5.71119305,0.847774445 6.28463877,1.55956258 6.5,2.407 C6.7496931,3.26399357 6.63197068,4.18621292 6.175,4.953 C5.78422555,5.73519305 5.07243742,6.30863877 4.225,6.524 C3.94816163,6.6299399 3.65441418,6.68482696 3.358,6.686 L3.358,6.686 Z M3.3,1.644 C3.15348123,1.6316582 3.0059998,1.6500508 2.867,1.698 C2.43630671,1.80864727 2.07825507,2.10720726 1.892,2.511 C1.66832255,2.88530087 1.59102824,3.32911977 1.675,3.757 C1.81444976,4.2158118 2.12482982,4.60351839 2.542,4.84 L2.542,4.84 C2.93947132,5.05571044 3.4035765,5.11390209 3.842,5.003 C4.27269329,4.89235273 4.63074493,4.59379274 4.817,4.19 C5.08158594,3.80975288 5.14251705,3.32379927 4.98,2.89 C4.86935273,2.45930671 4.57079274,2.10125507 4.167,1.915 C3.91745075,1.72826252 3.61147436,1.63262284 3.3,1.644 Z" id="Path_932"></path>
                </g>
                <g id="XMLID_72_" transform="translate(59.862000, 78.817000)">
                    <path d="M3.378,6.686 C2.79186976,6.67719108 2.21628753,6.52875326 1.699,6.253 C0.122797564,5.34921 -0.452411769,3.35810077 0.399,1.753 C0.820483382,0.964805176 1.54121623,0.379209734 2.399,0.128 C3.25599357,-0.121693101 4.17821292,-0.00397067792 4.945,0.453 C5.72719305,0.843774445 6.30063877,1.55556258 6.516,2.403 C6.7656931,3.25999357 6.64797068,4.18221292 6.191,4.949 C5.80022555,5.73119305 5.08843742,6.30463877 4.241,6.52 C3.96567156,6.62683255 3.67331398,6.68306819 3.378,6.686 L3.378,6.686 Z M3.324,1.648 C3.17748123,1.6356582 3.0299998,1.6540508 2.891,1.702 C2.46030671,1.81264727 2.10225507,2.11120726 1.916,2.515 C1.47853172,3.34062654 1.76421102,4.36423744 2.566,4.844 L2.566,4.844 C2.96347132,5.05971044 3.4275765,5.11790209 3.866,5.007 C4.29669329,4.89635273 4.65474493,4.59779274 4.841,4.194 C5.10558594,3.81375288 5.16651705,3.32779927 5.004,2.894 C4.89335273,2.46330671 4.59479274,2.10525507 4.191,1.919 C3.94197566,1.73083696 3.63595161,1.6337705 3.324,1.644 L3.324,1.648 Z" id="Path_933"></path>
                </g>
                <g id="XMLID_71_" transform="translate(106.659000, 79.599000)">
                    <path d="M6.959,1.625 L1.813,1.625 C1.51592363,1.63542373 1.23684208,1.4828823 1.08521302,1.22720349 C0.933583966,0.971524686 0.933583966,0.653475314 1.08521302,0.397796507 C1.23684208,0.142117701 1.51592363,-0.0104237317 1.813,-1.08420217e-19 L6.959,-1.08420217e-19 C7.25607637,-0.0104237317 7.53515792,0.142117701 7.68678698,0.397796507 C7.83841603,0.653475314 7.83841603,0.971524686 7.68678698,1.22720349 C7.53515792,1.4828823 7.25607637,1.63542373 6.959,1.625 L6.959,1.625 Z" id="Path_934"></path>
                </g>
                <g id="XMLID_70_" transform="translate(110.205000, 72.016000)">
                    <path d="M3.413,9.209 C2.96843646,9.1984484 2.6105516,8.84056354 2.6,8.396 L2.6,3.575 C2.2058512,2.6621529 1.46573886,1.94289893 0.542,1.575 C0.123092017,1.42533083 -0.0951691672,0.964407983 0.0545,0.5455 C0.204169167,0.126592017 0.665092017,-0.0916691672 1.084,0.058 C2.55075037,0.560512145 3.69498826,1.72475937 4.172,3.2 C4.19531128,3.28919335 4.21334258,3.37968374 4.226,3.471 L4.226,8.455 C4.18947466,8.87813062 3.8376792,9.20439602 3.413,9.209 L3.413,9.209 Z" id="Path_935"></path>
                </g>
                <g id="XMLID_69_" transform="translate(107.659000, 72.016000)">
                    <path d="M0.813,9.209 C0.368436455,9.1984484 0.0105515986,8.84056354 0,8.396 L0,3.412 C0,3.304 0,3.249 0.054,3.195 C0.590874178,1.75694477 1.7134671,0.614721009 3.142,0.053 C3.41298595,-0.0438189749 3.7150396,0.0112858863 3.93438027,0.197557116 C4.15372094,0.383828345 4.25702555,0.672966911 4.20538027,0.956057116 C4.15373499,1.23914732 3.95498595,1.47318103 3.684,1.57 C2.75005321,1.92198742 2.00453553,2.6464944 1.626,3.57 L1.626,8.4 C1.61335473,8.84300093 1.25605791,9.19853983 0.813,9.209 L0.813,9.209 Z" id="Path_936"></path>
                </g>
                <g id="XMLID_68_" transform="translate(106.659000, 91.462000)">
                    <path d="M6.959,1.625 L1.813,1.625 C1.51592363,1.63542373 1.23684208,1.4828823 1.08521302,1.22720349 C0.933583966,0.971524686 0.933583966,0.653475314 1.08521302,0.397796507 C1.23684208,0.142117701 1.51592363,-0.0104237317 1.813,0 L6.959,0 C7.25607637,-0.0104237317 7.53515792,0.142117701 7.68678698,0.397796507 C7.83841603,0.653475314 7.83841603,0.971524686 7.68678698,1.22720349 C7.53515792,1.4828823 7.25607637,1.63542373 6.959,1.625 L6.959,1.625 Z" id="Path_937"></path>
                </g>
                <g id="XMLID_67_" transform="translate(110.205000, 83.879000)">
                    <path d="M3.413,9.209 C2.96994209,9.19853983 2.61264527,8.84300093 2.6,8.4 L2.6,3.579 C2.2058512,2.6661529 1.46573886,1.94689893 0.542,1.579 C0.123092017,1.42933083 -0.0951691672,0.968407983 0.0545,0.5495 C0.204169167,0.130592017 0.665092017,-0.0876691672 1.084,0.062 C2.55075037,0.564512145 3.69498826,1.72875937 4.172,3.204 C4.19531128,3.29319335 4.21334258,3.38368374 4.226,3.475 L4.226,8.459 C4.187541,8.88055062 3.8362784,9.2045936 3.413,9.209 Z" id="Path_938"></path>
                </g>
                <g id="XMLID_66_" transform="translate(107.659000, 83.879000)">
                    <path d="M0.813,9.209 C0.369942092,9.19853983 0.0126452709,8.84300093 0,8.4 L0,3.416 C0,3.308 0,3.253 0.054,3.199 C0.590874178,1.76094477 1.7134671,0.618721009 3.142,0.057 C3.41298595,-0.0398189749 3.7150396,0.0152858863 3.93438027,0.201557116 C4.15372094,0.387828345 4.25702555,0.676966911 4.20538027,0.960057116 C4.15373499,1.24314732 3.95498595,1.47718103 3.684,1.574 C2.75005321,1.92598742 2.00453553,2.6504944 1.626,3.574 L1.626,8.4 C1.61335473,8.84300093 1.25605791,9.19853983 0.813,9.209 L0.813,9.209 Z" id="Path_939"></path>
                </g>
                <g id="XMLID_65_" transform="translate(12.159000, 79.599000)">
                    <path d="M5.959,1.625 L0.813,1.625 C0.375357453,1.60964412 0.0285087706,1.25041187 0.0285087706,0.8125 C0.0285087706,0.374588134 0.375357453,0.0153558781 0.813,0 L5.959,0 C6.39664255,0.0153558781 6.74349123,0.374588134 6.74349123,0.8125 C6.74349123,1.25041187 6.39664255,1.60964412 5.959,1.625 L5.959,1.625 Z" id="Path_940"></path>
                </g>
                <g id="XMLID_63_" transform="translate(14.705000, 72.016000)">
                    <path d="M3.413,9.209 C2.96843646,9.1984484 2.6105516,8.84056354 2.6,8.396 L2.6,3.575 C2.2058512,2.6621529 1.46573886,1.94289893 0.542,1.575 C0.123092017,1.42533083 -0.0951691672,0.964407983 0.0545,0.5455 C0.204169167,0.126592017 0.665092017,-0.0916691672 1.084,0.058 C2.55075037,0.560512145 3.69498826,1.72475937 4.172,3.2 C4.172,3.254 4.226,3.363 4.226,3.417 L4.226,8.4 C4.21335473,8.84300093 3.85605791,9.19853983 3.413,9.209 L3.413,9.209 Z" id="Path_942"></path>
                </g>
                <g id="XMLID_62_" transform="translate(11.159000, 91.462000)">
                    <path d="M6.959,1.625 L1.813,1.625 C1.51592363,1.63542373 1.23684208,1.4828823 1.08521302,1.22720349 C0.933583966,0.971524686 0.933583966,0.653475314 1.08521302,0.397796507 C1.23684208,0.142117701 1.51592363,-0.0104237317 1.813,0 L6.959,0 C7.25607637,-0.0104237317 7.53515792,0.142117701 7.68678698,0.397796507 C7.83841603,0.653475314 7.83841603,0.971524686 7.68678698,1.22720349 C7.53515792,1.4828823 7.25607637,1.63542373 6.959,1.625 L6.959,1.625 Z" id="Path_943"></path>
                </g>
                <g id="XMLID_61_" transform="translate(12.159000, 83.825000)">
                    <path d="M0.813,9.263 C0.368436455,9.2524484 0.0105515986,8.89456354 -1.4210421e-14,8.45 L-1.4210421e-14,3.466 C-0.00848550333,3.37235067 0.0102663718,3.27824404 0.054,3.195 C0.590874178,1.75694477 1.7134671,0.614721009 3.142,0.053 C3.56090798,-0.0966691672 4.02183083,0.121592017 4.1715,0.5405 C4.32116917,0.959407983 4.10290798,1.42033083 3.684,1.57 C2.75005321,1.92198742 2.00453553,2.6464944 1.626,3.57 L1.626,8.4 C1.63615831,8.86142106 1.27420602,9.24563364 0.813,9.263 L0.813,9.263 Z" id="Path_944"></path>
                </g>
                <g id="XMLID_60_" transform="translate(14.705000, 83.879000)">
                    <path d="M3.413,9.209 C2.96994209,9.19853983 2.61264527,8.84300093 2.6,8.4 L2.6,3.579 C2.2058512,2.6661529 1.46573886,1.94689893 0.542,1.579 C0.123092017,1.42933083 -0.0951691672,0.968407983 0.0545,0.5495 C0.204169167,0.130592017 0.665092017,-0.0876691672 1.084,0.062 C2.55075037,0.564512145 3.69498826,1.72875937 4.172,3.204 C4.19530902,3.29319387 4.21334029,3.38368413 4.226,3.475 L4.226,8.459 C4.187541,8.88055062 3.8362784,9.2045936 3.413,9.209 Z" id="Path_945"></path>
                </g>
                <g id="XMLID_59_" transform="translate(88.646000, 77.054000)">
                    <path d="M5.525,23.889 C5.08043646,23.8784484 4.7225516,23.5205635 4.712,23.076 L4.712,5.634 C3.96892574,3.74401023 2.44982906,2.26424764 0.541,1.571 C0.122092017,1.42133083 -0.0961691672,0.960407983 0.0535,0.5415 C0.203169167,0.122592017 0.664092017,-0.0956691672 1.083,0.054 C3.5298483,0.915994005 5.44632965,2.85237728 6.283,5.308 C6.283,5.362 6.337,5.471 6.337,5.525 L6.337,23.125 C6.30540007,23.5516987 5.95283087,23.8834263 5.525,23.889 L5.525,23.889 Z" id="Path_946"></path>
                </g>
                <g id="XMLID_58_" transform="translate(83.933000, 76.999000)">
                    <path d="M0.813,23.943 C0.368436455,23.9324484 0.0105515986,23.5745635 2.84217094e-14,23.13 L2.84217094e-14,5.53 C2.84217094e-14,5.422 2.84217094e-14,5.367 0.054,5.313 C0.912673088,2.87107226 2.82107326,0.942854085 5.254,0.059 C5.67290796,-0.0906690995 6.13383075,0.12759209 6.2834999,0.546500035 C6.43316906,0.965407979 6.21490793,1.42633079 5.796,1.576 C3.8995286,2.28882268 2.38731846,3.76187706 1.625,5.639 L1.625,23.081 C1.63461734,23.5416609 1.27341372,23.9251062 0.813,23.943 Z" id="Path_947"></path>
                </g>
                <g id="XMLID_57_" transform="translate(74.182000, 77.054000)">
                    <path d="M5.525,23.889 C5.08043646,23.8784484 4.7225516,23.5205635 4.712,23.076 L4.712,5.634 C3.96892574,3.74401023 2.44982906,2.26424764 0.541,1.571 C0.122092017,1.42133083 -0.0961691672,0.960407983 0.0535,0.5415 C0.203169167,0.122592017 0.664092017,-0.0956691672 1.083,0.054 C3.5298483,0.915994005 5.44632965,2.85237728 6.283,5.308 C6.283,5.362 6.337,5.471 6.337,5.525 L6.337,23.125 C6.30540007,23.5516987 5.95283087,23.8834263 5.525,23.889 L5.525,23.889 Z" id="Path_948"></path>
                </g>
                <g id="XMLID_56_" transform="translate(69.470000, 76.999000)">
                    <path d="M0.813,23.943 C0.368436455,23.9324484 0.0105515986,23.5745635 0,23.13 L0,5.53 C0,5.422 0,5.367 0.054,5.313 C0.912673088,2.87107226 2.82107326,0.942854085 5.254,0.059 C5.52498596,-0.0378190182 5.82703965,0.0172858223 6.04638034,0.203557058 C6.26572103,0.389828294 6.36902566,0.678966888 6.31738036,0.962057115 C6.26573506,1.24514734 6.06698599,1.47918105 5.796,1.576 C3.8995286,2.28882268 2.38731846,3.76187706 1.625,5.639 L1.625,23.081 C1.63461734,23.5416609 1.27341372,23.9251062 0.813,23.943 Z" id="Path_949"></path>
                </g>
                <g id="XMLID_55_" transform="translate(50.781000, 77.054000)">
                    <path d="M5.525,23.889 C5.08043646,23.8784484 4.7225516,23.5205635 4.712,23.076 L4.712,5.634 C3.96892574,3.74401023 2.44982906,2.26424764 0.541,1.571 C0.27001405,1.47418103 0.0712650144,1.24014732 0.0196197312,0.957057116 C-0.0320255519,0.673966911 0.0712790645,0.384828345 0.290619731,0.198557116 C0.509960398,0.0122858863 0.81201405,-0.0428189749 1.083,0.054 C3.5298483,0.915994005 5.44632965,2.85237728 6.283,5.308 C6.283,5.362 6.337,5.471 6.337,5.525 L6.337,23.125 C6.30540007,23.5516987 5.95283087,23.8834263 5.525,23.889 L5.525,23.889 Z" id="Path_950"></path>
                </g>
                <g id="XMLID_54_" transform="translate(46.069000, 76.999000)">
                    <path d="M0.813,23.943 C0.368436455,23.9324484 0.0105515986,23.5745635 1.42108547e-14,23.13 L1.42108547e-14,5.53 C1.42108547e-14,5.422 1.42108547e-14,5.367 0.054,5.313 C0.912549845,2.87099514 2.82099487,0.942731645 5.254,0.059 C5.52498596,-0.0378190182 5.82703965,0.0172858223 6.04638034,0.203557058 C6.26572103,0.389828294 6.36902566,0.678966888 6.31738036,0.962057115 C6.26573506,1.24514734 6.06698599,1.47918105 5.796,1.576 C3.88710054,2.26913543 2.36796394,3.74893692 1.625,5.639 L1.625,23.081 C1.63461734,23.5416609 1.27341372,23.9251062 0.813,23.943 Z" id="Path_951"></path>
                </g>
                <g id="XMLID_53_" transform="translate(36.318000, 77.054000)">
                    <path d="M5.525,23.889 C5.08043646,23.8784484 4.7225516,23.5205635 4.712,23.076 L4.712,5.634 C3.96892574,3.74401023 2.44982906,2.26424764 0.541,1.571 C0.122092075,1.42133079 -0.0961690557,0.960407979 0.0535000979,0.541500035 C0.203169251,0.12259209 0.664092036,-0.0956690995 1.083,0.054 C3.5298483,0.915994005 5.44632965,2.85237728 6.283,5.308 C6.283,5.362 6.337,5.471 6.337,5.525 L6.337,23.125 C6.30540007,23.5516987 5.95283087,23.8834263 5.525,23.889 L5.525,23.889 Z" id="Path_952"></path>
                </g>
                <g id="XMLID_52_" transform="translate(31.605000, 76.999000)">
                    <path d="M0.813,23.943 C0.368436455,23.9324484 0.0105515986,23.5745635 1.42108547e-14,23.13 L1.42108547e-14,5.53 C1.42108547e-14,5.422 1.42108547e-14,5.367 0.054,5.313 C0.912549845,2.87099514 2.82099487,0.942731645 5.254,0.059 C5.52498596,-0.0378190241 5.82703965,0.0172858135 6.04638035,0.20355705 C6.26572105,0.389828287 6.36902568,0.678966885 6.31738037,0.962057115 C6.26573507,1.24514734 6.06698599,1.47918106 5.796,1.576 C3.8995286,2.28882268 2.38731846,3.76187706 1.625,5.639 L1.625,23.081 C1.63461734,23.5416609 1.27341372,23.9251062 0.813,23.943 Z" id="Path_953"></path>
                </g>
                <g id="XMLID_51_" transform="translate(28.301000, 62.590000)">
                    <path d="M3.467,5.959 C3.25030997,5.96255078 3.04145075,5.87803637 2.88820719,5.72479281 C2.73496363,5.57154925 2.65044922,5.36269003 2.654,5.146 L2.6,3.575 C2.22456667,2.64940186 1.47794981,1.92382668 0.542,1.575 C0.123092017,1.42533083 -0.0951691672,0.964407983 0.0545,0.5455 C0.204169167,0.126592017 0.665092017,-0.0916691672 1.084,0.058 C2.55075037,0.560512145 3.69498826,1.72475937 4.172,3.2 C4.172,3.254 4.226,3.362 4.226,3.417 L4.28,5.096 C4.29526918,5.32089008 4.21637008,5.54200776 4.06218546,5.70643342 C3.90800084,5.87085909 3.69240644,5.96379536 3.467,5.96300506 L3.467,5.959 Z" id="Path_954"></path>
                </g>
                <g id="XMLID_50_" transform="translate(25.701000, 62.645000)">
                    <path d="M0.813,5.8 C0.368436455,5.7894484 0.0105515986,5.43156354 0,4.987 L0,3.416 C0,3.308 0,3.253 0.054,3.199 C0.590874178,1.76094477 1.7134671,0.618721009 3.142,0.057 C3.56090798,-0.0926691672 4.02183083,0.125592017 4.1715,0.5445 C4.32116917,0.963407983 4.10290798,1.42433083 3.684,1.574 C2.75005321,1.92598742 2.00453553,2.6504944 1.626,3.574 L1.626,4.982 C1.61808531,5.42851482 1.2594579,5.78934781 0.813,5.8 Z" id="Path_955"></path>
                </g>
                <g id="XMLID_49_" transform="translate(96.608000, 62.645000)">
                    <path d="M3.413,5.85 C2.96843646,5.8394484 2.6105516,5.48156354 2.6,5.037 L2.6,3.574 C2.2058512,2.6611529 1.46573886,1.94189893 0.542,1.574 C0.123092017,1.42433083 -0.0951691672,0.963407983 0.0545,0.5445 C0.204169167,0.125592017 0.665092017,-0.0926691672 1.084,0.057 C2.55075037,0.559512145 3.69498826,1.72375937 4.172,3.199 C4.172,3.253 4.226,3.362 4.226,3.416 L4.226,5.041 C4.21335473,5.48400093 3.85605791,5.83953983 3.413,5.85 L3.413,5.85 Z" id="Path_956"></path>
                </g>
                <g id="XMLID_48_" transform="translate(94.062000, 62.590000)">
                    <path d="M0.867,5.959 C0.650309968,5.96255078 0.441450752,5.87803637 0.288207191,5.72479281 C0.13496363,5.57154925 0.0504492239,5.36269003 0.054,5.146 L-4.33680869e-19,3.467 C-0.00848550333,3.37335067 0.0102663718,3.27924404 0.054,3.196 C0.590874178,1.75794477 1.7134671,0.615721009 3.142,0.054 C3.56090798,-0.0956691672 4.02183083,0.122592017 4.1715,0.5415 C4.32116917,0.960407983 4.10290798,1.42133083 3.684,1.571 C2.76713664,1.92329505 2.02715977,2.62443932 1.626,3.521 L1.68,5.038 C1.70598891,5.27055373 1.63248433,5.50325976 1.47762614,5.67868952 C1.32276794,5.85411928 1.10098129,5.95593137 0.867,5.959 L0.867,5.959 Z" id="Path_957"></path>
                </g>
                <g id="XMLID_47_" transform="translate(85.287000, 62.590000)">
                    <path d="M3.467,5.959 C3.25030997,5.96255078 3.04145075,5.87803637 2.88820719,5.72479281 C2.73496363,5.57154925 2.65044922,5.36269003 2.654,5.146 L2.6,3.575 C2.22456667,2.64940186 1.47794981,1.92382668 0.542,1.575 C0.27101405,1.47818103 0.0722650144,1.24414732 0.0206197312,0.961057116 C-0.0310255519,0.677966911 0.0722790645,0.388828345 0.291619731,0.202557116 C0.510960398,0.0162858863 0.81301405,-0.0388189749 1.084,0.058 C2.55075037,0.560512145 3.69498826,1.72475937 4.172,3.2 C4.172,3.254 4.226,3.362 4.226,3.417 L4.28,5.096 C4.29526918,5.32089008 4.21637008,5.54200776 4.06218546,5.70643342 C3.90800084,5.87085909 3.69240644,5.96379536 3.467,5.96300506 L3.467,5.959 Z" id="Path_958"></path>
                </g>
                <g id="XMLID_46_" transform="translate(82.687000, 62.590000)">
                    <path d="M0.867,5.959 C0.650309968,5.96255078 0.441450752,5.87803637 0.288207191,5.72479281 C0.13496363,5.57154925 0.0504492239,5.36269003 0.054,5.146 L2.84217094e-14,3.467 C-0.00848550333,3.37335067 0.0102663718,3.27924404 0.054,3.196 C0.590874178,1.75794477 1.7134671,0.615721009 3.142,0.054 C3.56090798,-0.0956691672 4.02183083,0.122592017 4.1715,0.5415 C4.32116917,0.960407983 4.10290798,1.42133083 3.684,1.571 C2.76713664,1.92329505 2.02715977,2.62443932 1.626,3.521 L1.68,5.038 C1.70598891,5.27055373 1.63248433,5.50325976 1.47762614,5.67868952 C1.32276794,5.85411928 1.10098129,5.95593137 0.867,5.959 L0.867,5.959 Z" id="Path_959"></path>
                </g>
                <g id="XMLID_45_" transform="translate(73.857000, 62.590000)">
                    <path d="M3.467,5.959 C3.25030997,5.96255078 3.04145075,5.87803637 2.88820719,5.72479281 C2.73496363,5.57154925 2.65044922,5.36269003 2.654,5.146 L2.6,3.575 C2.22456667,2.64940186 1.47794981,1.92382668 0.542,1.575 C0.123092017,1.42533083 -0.0951691672,0.964407983 0.0545,0.5455 C0.204169167,0.126592017 0.665092017,-0.0916691672 1.084,0.058 C2.55075037,0.560512145 3.69498826,1.72475937 4.172,3.2 C4.172,3.254 4.226,3.362 4.226,3.417 L4.28,5.096 C4.29526918,5.32089008 4.21637008,5.54200776 4.06218546,5.70643342 C3.90800084,5.87085909 3.69240644,5.96379536 3.467,5.96300506 L3.467,5.959 Z" id="Path_960"></path>
                </g>
                <g id="XMLID_44_" transform="translate(71.311000, 62.590000)">
                    <path d="M0.867,5.959 C0.650309968,5.96255078 0.441450752,5.87803637 0.288207191,5.72479281 C0.13496363,5.57154925 0.0504492239,5.36269003 0.054,5.146 L2.84225768e-14,3.467 C-0.00848550333,3.37335067 0.0102663718,3.27924404 0.054,3.196 C0.590874178,1.75794477 1.7134671,0.615721009 3.142,0.054 C3.41298595,-0.0428189749 3.7150396,0.0122858863 3.93438027,0.198557116 C4.15372094,0.384828345 4.25702555,0.673966911 4.20538027,0.957057116 C4.15373499,1.24014732 3.95498595,1.47418103 3.684,1.571 C2.76713664,1.92329505 2.02715977,2.62443932 1.626,3.521 L1.68,5.038 C1.70598891,5.27055373 1.63248433,5.50325976 1.47762614,5.67868952 C1.32276794,5.85411928 1.10098129,5.95593137 0.867,5.959 L0.867,5.959 Z" id="Path_961"></path>
                </g>
                <g id="XMLID_43_" transform="translate(62.482000, 62.590000)">
                    <path d="M3.467,5.959 C3.25030997,5.96255078 3.04145075,5.87803637 2.88820719,5.72479281 C2.73496363,5.57154925 2.65044922,5.36269003 2.654,5.146 L2.6,3.575 C2.22456667,2.64940186 1.47794981,1.92382668 0.542,1.575 C0.27101405,1.47818103 0.0722650144,1.24414732 0.0206197312,0.961057116 C-0.0310255519,0.677966911 0.0722790645,0.388828345 0.291619731,0.202557116 C0.510960398,0.0162858863 0.81301405,-0.0388189749 1.084,0.058 C2.55075037,0.560512145 3.69498826,1.72475937 4.172,3.2 C4.172,3.254 4.226,3.362 4.226,3.417 L4.28,5.096 C4.29526918,5.32089008 4.21637008,5.54200776 4.06218546,5.70643342 C3.90800084,5.87085909 3.69240644,5.96379536 3.467,5.96300506 L3.467,5.959 Z" id="Path_962"></path>
                </g>
                <g id="XMLID_42_" transform="translate(59.936000, 62.590000)">
                    <path d="M0.867,5.959 C0.650309968,5.96255078 0.441450752,5.87803637 0.288207191,5.72479281 C0.13496363,5.57154925 0.0504492239,5.36269003 0.054,5.146 L0,3.467 C-0.00848550333,3.37335067 0.0102663718,3.27924404 0.054,3.196 C0.590874178,1.75794477 1.7134671,0.615721009 3.142,0.054 C3.41298595,-0.0428189749 3.7150396,0.0122858863 3.93438027,0.198557116 C4.15372094,0.384828345 4.25702555,0.673966911 4.20538027,0.957057116 C4.15373499,1.24014732 3.95498595,1.47418103 3.684,1.571 C2.76713664,1.92329505 2.02715977,2.62443932 1.626,3.521 L1.68,5.038 C1.70598891,5.27055373 1.63248433,5.50325976 1.47762614,5.67868952 C1.32276794,5.85411928 1.10098129,5.95593137 0.867,5.959 L0.867,5.959 Z" id="Path_963"></path>
                </g>
                <g id="XMLID_41_" transform="translate(51.106000, 62.590000)">
                    <path d="M3.467,5.959 C3.25030997,5.96255078 3.04145075,5.87803637 2.88820719,5.72479281 C2.73496363,5.57154925 2.65044922,5.36269003 2.654,5.146 L2.6,3.575 C2.22456667,2.64940186 1.47794981,1.92382668 0.542,1.575 C0.27101405,1.47818103 0.0722650144,1.24414732 0.0206197312,0.961057116 C-0.0310255519,0.677966911 0.0722790645,0.388828345 0.291619731,0.202557116 C0.510960398,0.0162858863 0.81301405,-0.0388189749 1.084,0.058 C2.55075037,0.560512145 3.69498826,1.72475937 4.172,3.2 C4.172,3.254 4.226,3.362 4.226,3.417 L4.28,5.096 C4.29526918,5.32089008 4.21637008,5.54200776 4.06218546,5.70643342 C3.90800084,5.87085909 3.69240644,5.96379536 3.467,5.96300506 L3.467,5.959 Z" id="Path_964"></path>
                </g>
                <g id="XMLID_40_" transform="translate(48.506000, 62.590000)">
                    <path d="M0.867,5.959 C0.650309968,5.96255078 0.441450752,5.87803637 0.288207191,5.72479281 C0.13496363,5.57154925 0.0504492239,5.36269003 0.054,5.146 L1.42117221e-14,3.467 C-0.00848550333,3.37335067 0.0102663718,3.27924404 0.054,3.196 C0.590874178,1.75794477 1.7134671,0.615721009 3.142,0.054 C3.56090798,-0.0956691672 4.02183083,0.122592017 4.1715,0.5415 C4.32116917,0.960407983 4.10290798,1.42133083 3.684,1.571 C2.76713664,1.92329505 2.02715977,2.62443932 1.626,3.521 L1.68,5.038 C1.70598891,5.27055373 1.63248433,5.50325976 1.47762614,5.67868952 C1.32276794,5.85411928 1.10098129,5.95593137 0.867,5.959 L0.867,5.959 Z" id="Path_965"></path>
                </g>
                <g id="XMLID_39_" transform="translate(39.731000, 62.590000)">
                    <path d="M3.467,5.959 C3.25030997,5.96255078 3.04145075,5.87803637 2.88820719,5.72479281 C2.73496363,5.57154925 2.65044922,5.36269003 2.654,5.146 L2.6,3.575 C2.22456667,2.64940186 1.47794981,1.92382668 0.542,1.575 C0.27101405,1.47818103 0.0722650144,1.24414732 0.0206197312,0.961057116 C-0.0310255519,0.677966911 0.0722790645,0.388828345 0.291619731,0.202557116 C0.510960398,0.0162858863 0.81301405,-0.0388189749 1.084,0.058 C2.55075037,0.560512145 3.69498826,1.72475937 4.172,3.2 C4.172,3.254 4.226,3.362 4.226,3.417 L4.28,5.096 C4.29526918,5.32089008 4.21637008,5.54200776 4.06218546,5.70643342 C3.90800084,5.87085909 3.69240644,5.96379536 3.467,5.96300506 L3.467,5.959 Z" id="Path_966"></path>
                </g>
                <g id="XMLID_38_" transform="translate(37.131000, 62.590000)">
                    <path d="M0.867,5.959 C0.650309968,5.96255078 0.441450752,5.87803637 0.288207191,5.72479281 C0.13496363,5.57154925 0.0504492239,5.36269003 0.054,5.146 L8.67361738e-19,3.467 C-0.00848550333,3.37335067 0.0102663718,3.27924404 0.054,3.196 C0.590874178,1.75794477 1.7134671,0.615721009 3.142,0.054 C3.56090798,-0.0956691672 4.02183083,0.122592017 4.1715,0.5415 C4.32116917,0.960407983 4.10290798,1.42133083 3.684,1.571 C2.76713664,1.92329505 2.02715977,2.62443932 1.626,3.521 L1.68,5.038 C1.70598891,5.27055373 1.63248433,5.50325976 1.47762614,5.67868952 C1.32276794,5.85411928 1.10098129,5.95593137 0.867,5.959 L0.867,5.959 Z" id="Path_967"></path>
                </g>
                <g id="XMLID_37_" transform="translate(93.304000, 113.563000)">
                    <path d="M6.013,1.625 L0.813,1.625 C0.375357453,1.60964412 0.0285087706,1.25041187 0.0285087706,0.8125 C0.0285087706,0.374588134 0.375357453,0.0153558781 0.813,-5.68433104e-14 L6.013,-5.68433104e-14 C6.31007637,-0.0104237317 6.58915792,0.142117701 6.74078698,0.397796507 C6.89241603,0.653475314 6.89241603,0.971524686 6.74078698,1.22720349 C6.58915792,1.4828823 6.31007637,1.63542373 6.013,1.625 L6.013,1.625 Z" id="Path_968"></path>
                </g>
                <g id="XMLID_36_" transform="translate(95.904000, 105.980000)">
                    <path d="M3.413,9.209 C2.96843646,9.1984484 2.6105516,8.84056354 2.6,8.396 L2.6,3.575 C2.2058512,2.6621529 1.46573886,1.94289893 0.542,1.575 C0.123092017,1.42533083 -0.0951691672,0.964407983 0.0545,0.5455 C0.204169167,0.126592017 0.665092017,-0.0916691672 1.084,0.058 C2.55075037,0.560512145 3.69498826,1.72475937 4.172,3.2 C4.172,3.254 4.226,3.363 4.226,3.417 L4.226,8.4 C4.21335473,8.84300093 3.85605791,9.19853983 3.413,9.209 Z" id="Path_969"></path>
                </g>
                <g id="XMLID_35_" transform="translate(93.304000, 105.980000)">
                    <path d="M0.813,9.209 C0.368436455,9.1984484 0.0105515986,8.84056354 0,8.396 L0,3.412 C0,3.304 0,3.249 0.054,3.195 C0.59076503,1.75687527 1.71339572,0.614613082 3.142,0.053 C3.56090798,-0.0966691672 4.02183083,0.121592017 4.1715,0.5405 C4.32116917,0.959407983 4.10290798,1.42033083 3.684,1.57 C2.75005321,1.92198742 2.00453553,2.6464944 1.626,3.57 L1.626,8.4 C1.61335473,8.84300093 1.25605791,9.19853983 0.813,9.209 Z" id="Path_970"></path>
                </g>
                <g id="XMLID_34_" transform="translate(93.304000, 129.976000)">
                    <path d="M6.013,1.625 L0.813,1.625 C0.375357453,1.60964412 0.0285087706,1.25041187 0.0285087706,0.8125 C0.0285087706,0.374588134 0.375357453,0.0153558781 0.813,-2.8421601e-14 L6.013,-2.8421601e-14 C6.31007637,-0.0104237317 6.58915792,0.142117701 6.74078698,0.397796507 C6.89241603,0.653475314 6.89241603,0.971524686 6.74078698,1.22720349 C6.58915792,1.4828823 6.31007637,1.63542373 6.013,1.625 L6.013,1.625 Z" id="Path_971"></path>
                </g>
                <g id="XMLID_33_" transform="translate(95.904000, 122.393000)">
                    <path d="M3.413,9.209 C2.96881368,9.19847035 2.61107633,8.84117302 2.6,8.397 L2.6,3.576 C2.2058512,2.6631529 1.46573886,1.94389893 0.542,1.576 C0.27101405,1.47918103 0.0722650144,1.24514732 0.0206197312,0.962057116 C-0.0310255519,0.678966911 0.0722790645,0.389828345 0.291619731,0.203557116 C0.510960398,0.0172858863 0.81301405,-0.0378189749 1.084,0.059 C2.55075037,0.561512145 3.69498826,1.72575937 4.172,3.201 C4.172,3.255 4.226,3.363 4.226,3.418 L4.226,8.4 C4.21335473,8.84300093 3.85605791,9.19853983 3.413,9.209 Z" id="Path_972"></path>
                </g>
                <g id="XMLID_32_" transform="translate(93.304000, 122.393000)">
                    <path d="M0.813,9.209 C0.368436455,9.1984484 0.0105515986,8.84056354 0,8.396 L0,3.412 C0,3.304 0,3.249 0.054,3.195 C0.590874178,1.75694477 1.7134671,0.614721009 3.142,0.053 C3.41298595,-0.0438189749 3.7150396,0.0112858863 3.93438027,0.197557116 C4.15372094,0.383828345 4.25702555,0.672966911 4.20538027,0.956057116 C4.15373499,1.23914732 3.95498595,1.47318103 3.684,1.57 C2.75005321,1.92198742 2.00453553,2.6464944 1.626,3.57 L1.626,8.4 C1.61335473,8.84300093 1.25605791,9.19853983 0.813,9.209 Z" id="Path_973"></path>
                </g>
                <g id="XMLID_31_" transform="translate(93.304000, 146.444000)">
                    <path d="M6.013,1.625 L0.813,1.625 C0.375357453,1.60964412 0.0285087706,1.25041187 0.0285087706,0.8125 C0.0285087706,0.374588134 0.375357453,0.0153558781 0.813,-5.68435273e-14 L6.013,-5.68435273e-14 C6.31007637,-0.0104237317 6.58915792,0.142117701 6.74078698,0.397796507 C6.89241603,0.653475314 6.89241603,0.971524686 6.74078698,1.22720349 C6.58915792,1.4828823 6.31007637,1.63542373 6.013,1.625 L6.013,1.625 Z" id="Path_974"></path>
                </g>
                <g id="XMLID_30_" transform="translate(95.904000, 138.806000)">
                    <path d="M3.413,9.209 C2.96881368,9.19847035 2.61107633,8.84117302 2.6,8.397 L2.6,3.576 C2.2058512,2.6631529 1.46573886,1.94389893 0.542,1.576 C0.27101405,1.47918103 0.0722650144,1.24514732 0.0206197312,0.962057116 C-0.0310255519,0.678966911 0.0722790645,0.389828345 0.291619731,0.203557116 C0.510960398,0.0172858863 0.81301405,-0.0378189749 1.084,0.059 C2.55075037,0.561512145 3.69498826,1.72575937 4.172,3.201 C4.172,3.255 4.226,3.364 4.226,3.418 L4.226,8.4 C4.21335473,8.84300093 3.85605791,9.19853983 3.413,9.209 L3.413,9.209 Z" id="Path_975"></path>
                </g>
                <g id="XMLID_29_" transform="translate(93.304000, 138.860000)">
                    <path d="M0.813,9.209 C0.368436455,9.1984484 0.0105515986,8.84056354 0,8.396 L0,3.412 C0,3.304 0,3.25 0.054,3.195 C0.59076503,1.75687527 1.71339572,0.614613082 3.142,0.053 C3.41298595,-0.0438189749 3.7150396,0.0112858863 3.93438027,0.197557116 C4.15372094,0.383828345 4.25702555,0.672966911 4.20538027,0.956057116 C4.15373499,1.23914732 3.95498595,1.47318103 3.684,1.57 C2.75005321,1.92198742 2.00453553,2.6464944 1.626,3.57 L1.626,8.4 C1.61335473,8.84300093 1.25605791,9.19853983 0.813,9.209 L0.813,9.209 Z" id="Path_976"></path>
                </g>
                <g id="XMLID_28_" transform="translate(26.351000, 113.563000)">
                    <path d="M6.013,1.625 L0.813,1.625 C0.375357453,1.60964412 0.0285087706,1.25041187 0.0285087706,0.8125 C0.0285087706,0.374588134 0.375357453,0.0153558781 0.813,-5.68434189e-14 L6.013,-5.68434189e-14 C6.45064255,0.0153558781 6.79749123,0.374588134 6.79749123,0.8125 C6.79749123,1.25041187 6.45064255,1.60964412 6.013,1.625 L6.013,1.625 Z" id="Path_977"></path>
                </g>
                <g id="XMLID_27_" transform="translate(28.951000, 105.980000)">
                    <path d="M3.413,9.209 C2.96843646,9.1984484 2.6105516,8.84056354 2.6,8.396 L2.6,3.575 C2.2058512,2.6621529 1.46573886,1.94289893 0.542,1.575 C0.123092017,1.42533083 -0.0951691672,0.964407983 0.0545,0.5455 C0.204169167,0.126592017 0.665092017,-0.0916691672 1.084,0.058 C2.55075037,0.560512145 3.69498826,1.72475937 4.172,3.2 C4.19530902,3.28919387 4.21334029,3.37968413 4.226,3.471 L4.226,8.455 C4.18947466,8.87813062 3.8376792,9.20439602 3.413,9.209 L3.413,9.209 Z" id="Path_978"></path>
                </g>
                <g id="XMLID_26_" transform="translate(26.351000, 105.926000)">
                    <path d="M0.813,9.263 C0.368436455,9.2524484 0.0105515986,8.89456354 8.67361738e-19,8.45 L8.67361738e-19,3.466 C-0.00848550333,3.37235067 0.0102663718,3.27824404 0.054,3.195 C0.590874178,1.75694477 1.7134671,0.614721009 3.142,0.053 C3.56090798,-0.0966691672 4.02183083,0.121592017 4.1715,0.5405 C4.32116917,0.959407983 4.10290798,1.42033083 3.684,1.57 C2.75005321,1.92198742 2.00453553,2.6464944 1.626,3.57 L1.626,8.4 C1.63615831,8.86142106 1.27420602,9.24563364 0.813,9.263 L0.813,9.263 Z" id="Path_979"></path>
                </g>
                <g id="XMLID_25_" transform="translate(25.351000, 129.976000)">
                    <path d="M7.013,1.625 L1.813,1.625 C1.51592363,1.63542373 1.23684208,1.4828823 1.08521302,1.22720349 C0.933583966,0.971524686 0.933583966,0.653475314 1.08521302,0.397796507 C1.23684208,0.142117701 1.51592363,-0.0104237317 1.813,-2.8421601e-14 L7.013,-2.8421601e-14 C7.31007637,-0.0104237317 7.58915792,0.142117701 7.74078698,0.397796507 C7.89241603,0.653475314 7.89241603,0.971524686 7.74078698,1.22720349 C7.58915792,1.4828823 7.31007637,1.63542373 7.013,1.625 Z" id="Path_980"></path>
                </g>
                <g id="XMLID_24_" transform="translate(28.951000, 122.393000)">
                    <path d="M3.413,9.209 C2.96881368,9.19847035 2.61107633,8.84117302 2.6,8.397 L2.6,3.576 C2.2058512,2.6631529 1.46573886,1.94389893 0.542,1.576 C0.271013989,1.47918107 0.0722648868,1.24514736 0.0206195753,0.962057114 C-0.0310257361,0.678966872 0.0722788972,0.389828258 0.29161961,0.203557018 C0.510960322,0.0172857774 0.813014032,-0.0378190485 1.084,0.059 C2.55075037,0.561512145 3.69498826,1.72575937 4.172,3.201 C4.19531128,3.29019335 4.21334258,3.38068374 4.226,3.472 L4.226,8.456 C4.18899003,8.8787357 3.83732825,9.20444459 3.413,9.209 L3.413,9.209 Z" id="Path_981"></path>
                </g>
                <g id="XMLID_23_" transform="translate(26.351000, 122.339000)">
                    <path d="M0.813,9.263 C0.368436455,9.2524484 0.0105515986,8.89456354 8.67361738e-19,8.45 L8.67361738e-19,3.466 C-0.00848550333,3.37235067 0.0102663718,3.27824404 0.054,3.195 C0.590874178,1.75694477 1.7134671,0.614721009 3.142,0.053 C3.41298595,-0.0438189749 3.7150396,0.0112858863 3.93438027,0.197557116 C4.15372094,0.383828345 4.25702555,0.672966911 4.20538027,0.956057116 C4.15373499,1.23914732 3.95498595,1.47318103 3.684,1.57 C2.75005321,1.92198742 2.00453553,2.6464944 1.626,3.57 L1.626,8.4 C1.63615831,8.86142106 1.27420602,9.24563364 0.813,9.263 L0.813,9.263 Z" id="Path_982"></path>
                </g>
                <g id="XMLID_22_" transform="translate(26.351000, 146.444000)">
                    <path d="M6.013,1.625 L0.813,1.625 C0.375357453,1.60964412 0.0285087706,1.25041187 0.0285087706,0.8125 C0.0285087706,0.374588134 0.375357453,0.0153558781 0.813,-5.68434189e-14 L6.013,-5.68434189e-14 C6.45064255,0.0153558781 6.79749123,0.374588134 6.79749123,0.8125 C6.79749123,1.25041187 6.45064255,1.60964412 6.013,1.625 L6.013,1.625 Z" id="Path_983"></path>
                </g>
                <g id="XMLID_21_" transform="translate(28.951000, 138.806000)">
                    <path d="M3.413,9.209 C2.96881368,9.19847035 2.61107633,8.84117302 2.6,8.397 L2.6,3.576 C2.2058512,2.6631529 1.46573886,1.94389893 0.542,1.576 C0.27101405,1.47918103 0.0722650144,1.24514732 0.0206197312,0.962057116 C-0.0310255519,0.678966911 0.0722790645,0.389828345 0.291619731,0.203557116 C0.510960398,0.0172858863 0.81301405,-0.0378189749 1.084,0.059 C2.55075037,0.561512145 3.69498826,1.72575937 4.172,3.201 C4.19531128,3.29019335 4.21334258,3.38068374 4.226,3.472 L4.226,8.456 C4.18899003,8.8787357 3.83732825,9.20444459 3.413,9.209 L3.413,9.209 Z" id="Path_984"></path>
                </g>
                <g id="XMLID_20_" transform="translate(26.351000, 138.806000)">
                    <path d="M0.813,9.263 C0.368436455,9.2524484 0.0105515986,8.89456354 8.67361738e-19,8.45 L8.67361738e-19,3.466 C-0.00848550333,3.37235067 0.0102663718,3.27824404 0.054,3.195 C0.590874178,1.75694477 1.7134671,0.614721009 3.142,0.053 C3.41298595,-0.0438189749 3.7150396,0.0112858863 3.93438027,0.197557116 C4.15372094,0.383828345 4.25702555,0.672966911 4.20538027,0.956057116 C4.15373499,1.23914732 3.95498595,1.47318103 3.684,1.57 C2.75005321,1.92198742 2.00453553,2.6464944 1.626,3.57 L1.626,8.4 C1.63615831,8.86142106 1.27420602,9.24563364 0.813,9.263 L0.813,9.263 Z" id="Path_985"></path>
                </g>
                <g id="XMLID_19_" transform="translate(2.029000, 66.924000)">
                    <path d="M121.718,1.625 L0.813,1.625 C0.375357453,1.60964412 0.0285087706,1.25041187 0.0285087706,0.8125 C0.0285087706,0.374588134 0.375357453,0.0153558781 0.813,0 L121.718,0 C122.015076,-0.0104237317 122.294158,0.142117701 122.445787,0.397796507 C122.597416,0.653475314 122.597416,0.971524686 122.445787,1.22720349 C122.294158,1.4828823 122.015076,1.63542373 121.718,1.625 L121.718,1.625 Z" id="Path_986"></path>
                </g>
                <g id="XMLID_18_" transform="translate(2.029000, 96.554000)">
                    <path d="M121.718,1.625 L0.813,1.625 C0.375357453,1.60964412 0.0285087706,1.25041187 0.0285087706,0.8125 C0.0285087706,0.374588134 0.375357453,0.0153558781 0.813,-1.08420217e-19 L121.718,-1.08420217e-19 C122.015076,-0.0104237317 122.294158,0.142117701 122.445787,0.397796507 C122.597416,0.653475314 122.597416,0.971524686 122.445787,1.22720349 C122.294158,1.4828823 122.015076,1.63542373 121.718,1.625 L121.718,1.625 Z" id="Path_987"></path>
                </g>
                <g id="XMLID_17_" transform="translate(2.029000, 66.924000)">
                    <path d="M0.813,31.256 C0.368436455,31.2454484 0.0105515986,30.8875635 7.10542736e-15,30.443 L7.10542736e-15,0.813 C0.0153558781,0.375357453 0.374588134,0.0285087706 0.8125,0.0285087706 C1.25041187,0.0285087706 1.60964412,0.375357453 1.625,0.813 L1.625,30.443 C1.61447035,30.8871863 1.25717302,31.2449237 0.813,31.256 Z" id="Path_988"></path>
                </g>
                <g id="XMLID_16_" transform="translate(122.934000, 66.924000)">
                    <path d="M0.813,31.256 C0.368436455,31.2454484 0.0105515986,30.8875635 5.68434189e-14,30.443 L5.68434189e-14,0.813 C0.0153558781,0.375357453 0.374588134,0.0285087706 0.8125,0.0285087706 C1.25041187,0.0285087706 1.60964412,0.375357453 1.625,0.813 L1.625,30.443 C1.61447035,30.8871863 1.25717302,31.2449237 0.813,31.256 Z" id="Path_989"></path>
                </g>
                <g id="XMLID_15_" transform="translate(27.434000, 67.195000)">
                    <path d="M0.813,33.747 C0.368436455,33.7364484 0.0105515986,33.3785635 0,32.934 L0,0.813 C0.0153558781,0.375357453 0.374588134,0.0285087706 0.8125,0.0285087706 C1.25041187,0.0285087706 1.60964412,0.375357453 1.625,0.813 L1.625,32.935 C1.61394604,33.3787959 1.25679589,33.735946 0.813,33.747 L0.813,33.747 Z" id="Path_990"></path>
                </g>
                <g id="XMLID_14_" transform="translate(110.259000, 5.875000)">
                    <path d="M5.525,16.576 C5.08043646,16.5654484 4.7225516,16.2075635 4.712,15.763 L4.712,5.634 C3.96892574,3.74401023 2.44982906,2.26424764 0.541,1.571 C0.270014028,1.47418104 0.0712649685,1.24014733 0.0196196752,0.957057115 C-0.0320256181,0.673966897 0.0712790044,0.384828314 0.290619688,0.198557081 C0.509960371,0.0122858472 0.812014043,-0.0428190013 1.083,0.054 C3.5298483,0.915994005 5.44632965,2.85237728 6.283,5.308 C6.283,5.362 6.337,5.471 6.337,5.525 L6.337,15.818 C6.30245814,16.2423323 5.95070284,16.570695 5.525,16.576 Z" id="Path_991"></path>
                </g>
                <g id="XMLID_13_" transform="translate(105.492000, 5.875000)">
                    <path d="M0.813,16.63 C0.368436455,16.6194484 0.0105515986,16.2615635 2.84217094e-14,15.817 L2.84217094e-14,5.525 C2.84217094e-14,5.417 2.84217094e-14,5.362 0.054,5.308 C0.912549845,2.86599514 2.82099487,0.937731645 5.254,0.054 C5.52498596,-0.0428190013 5.82703963,0.0122858472 6.04638031,0.198557081 C6.265721,0.384828314 6.36902562,0.673966897 6.31738032,0.957057115 C6.26573503,1.24014733 6.06698597,1.47418104 5.796,1.571 C3.8995286,2.28382268 2.38731846,3.75687706 1.625,5.634 L1.625,15.764 C1.63683726,16.2262021 1.2750068,16.6120951 0.813,16.63 Z" id="Path_992"></path>
                </g>
                <g id="XMLID_12_" transform="translate(62.536000, 103.488000)">
                    <path d="M19.88,49.24 C19.4354365,49.2294484 19.0775516,48.8715635 19.067,48.427 L19.067,19.989 C18.579,18.689 13.921,6.176 0.541,1.572 C0.122092017,1.42233083 -0.0961691672,0.961407983 0.0535,0.5425 C0.203169167,0.123592017 0.664092017,-0.0946691672 1.083,0.055 C15.925,5.147 20.475,19.068 20.638,19.664 C20.661309,19.7531939 20.6793403,19.8436841 20.692,19.935 L20.692,48.482 C20.6574581,48.9063323 20.3057028,49.234695 19.88,49.24 L19.88,49.24 Z" id="Path_993"></path>
                </g>
                <g id="XMLID_11_" transform="translate(43.468000, 103.380000)">
                    <path d="M0.813,49.4 C0.368436455,49.3894484 0.0105515986,49.0315635 -1.42117221e-14,48.587 L-1.42117221e-14,19.934 C-0.00848550333,19.8403507 0.0102663718,19.746244 0.054,19.663 C0.217,19.063 4.767,5.2 19.609,0.054 C20.027908,-0.0956690995 20.4888307,0.12259209 20.6384999,0.541500035 C20.7881691,0.960407979 20.5699079,1.42133079 20.151,1.571 C6.771,6.171 2.113,18.688 1.625,19.988 L1.625,48.535 C1.63628089,48.996817 1.27460766,49.3820969 0.813,49.4 Z" id="Path_994"></path>
                </g>
                <g id="XMLID_10_" transform="translate(9.667000, 48.481000)">
                    <path d="M0.813,19.526 C0.368436455,19.5154484 0.0105515986,19.1575635 0,18.713 L0,1.813 C-0.0104237317,1.51592363 0.142117701,1.23684208 0.397796507,1.08521302 C0.653475314,0.933583966 0.971524686,0.933583966 1.22720349,1.08521302 C1.4828823,1.23684208 1.63542373,1.51592363 1.625,1.813 L1.625,18.713 C1.61447035,19.1571863 1.25717302,19.5149237 0.813,19.526 L0.813,19.526 Z" id="Path_995"></path>
                </g>
                <g id="XMLID_9_" transform="translate(19.797000, 48.481000)">
                    <path d="M0.813,19.526 C0.368436455,19.5154484 0.0105515986,19.1575635 1.42109631e-14,18.713 L1.42109631e-14,1.813 C-0.0104237317,1.51592363 0.142117701,1.23684208 0.397796507,1.08521302 C0.653475314,0.933583966 0.971524686,0.933583966 1.22720349,1.08521302 C1.4828823,1.23684208 1.63542373,1.51592363 1.625,1.813 L1.625,18.713 C1.61447035,19.1571863 1.25717302,19.5149237 0.813,19.526 L0.813,19.526 Z" id="Path_996"></path>
                </g>
                <g id="XMLID_8_" transform="translate(5.496000, 39.243000)">
                    <path d="M19.23,11.321 L0.813,11.321 C0.368436455,11.3104484 0.0105515986,10.9525635 0,10.508 L0,0.808 C0.0105515986,0.363436455 0.368436455,0.00555159857 0.813,-0.005 L19.23,-0.005 C19.6745635,0.00555159857 20.0324484,0.363436455 20.043,0.808 L20.043,10.508 C20.0324484,10.9525635 19.6745635,11.3104484 19.23,11.321 L19.23,11.321 Z M1.625,9.7 L18.417,9.7 L18.417,1.625 L1.625,1.625 L1.625,9.7 Z" id="Path_997"></path>
                </g>
                <g id="XMLID_7_" transform="translate(9.667000, 29.655000)">
                    <path d="M0.813,10.4 C0.368813682,10.3894704 0.0110763326,10.032173 0,9.588 L0,0.813 C0.0153558781,0.375357453 0.374588134,0.0285087706 0.8125,0.0285087706 C1.25041187,0.0285087706 1.60964412,0.375357453 1.625,0.813 L1.625,9.588 C1.61394604,10.0317959 1.25679589,10.388946 0.813,10.4 L0.813,10.4 Z" id="Path_998"></path>
                </g>
                <g id="XMLID_6_" transform="translate(19.797000, 28.655000)">
                    <path d="M0.813,11.4 C0.368436455,11.3894484 0.0105515986,11.0315635 1.42109631e-14,10.587 L1.42109631e-14,1.813 C-0.0104237317,1.51592363 0.142117701,1.23684208 0.397796507,1.08521302 C0.653475314,0.933583966 0.971524686,0.933583966 1.22720349,1.08521302 C1.4828823,1.23684208 1.63542373,1.51592363 1.625,1.813 L1.625,10.588 C1.61394604,11.0317959 1.25679589,11.388946 0.813,11.4 L0.813,11.4 Z" id="Path_999"></path>
                </g>
                <g id="XMLID_5_" transform="translate(6.959000, 21.043000)">
                    <path d="M16.3,9.425 L0.813,9.425 C0.368813682,9.41447035 0.0110763326,9.05717302 7.10542736e-15,8.613 L7.10542736e-15,0.813 C0.0105515986,0.368436455 0.368436455,0.0105515986 0.813,7.10542736e-15 L16.3,7.10542736e-15 C16.7445635,0.0105515986 17.1024484,0.368436455 17.113,0.813 L17.113,8.613 C17.1019237,9.05717302 16.7441863,9.41447035 16.3,9.425 L16.3,9.425 Z M1.625,7.8 L15.492,7.8 L15.492,1.625 L1.625,1.625 L1.625,7.8 Z" id="Path_1000"></path>
                </g>
                <g id="XMLID_4_" transform="translate(10.317000, 13.080000)">
                    <path d="M9.913,1.625 L0.813,1.625 C0.375357453,1.60964412 0.0285087706,1.25041187 0.0285087706,0.8125 C0.0285087706,0.374588134 0.375357453,0.0153558781 0.813,0 L9.913,0 C10.2100764,-0.0104237317 10.4891579,0.142117701 10.640787,0.397796507 C10.792416,0.653475314 10.792416,0.971524686 10.640787,1.22720349 C10.4891579,1.4828823 10.2100764,1.63542373 9.913,1.625 L9.913,1.625 Z" id="Path_1001"></path>
                </g>
                <g id="XMLID_3_" transform="translate(14.651000, 0.000000)">
                    <path d="M0.813,7.392 L0.813,7.392 C0.596309968,7.39555078 0.387450752,7.31103637 0.234207191,7.15779281 C0.0809636298,7.00454925 -0.00355077605,6.79569003 1.42108954e-14,6.579 L0.108,1.812 C0.0975762683,1.51492363 0.250117701,1.23584208 0.505796507,1.08421302 C0.761475314,0.932583966 1.07952469,0.932583966 1.33520349,1.08421302 C1.5908823,1.23584208 1.74342373,1.51492363 1.733,1.812 L1.625,6.579 C1.62854362,6.79551378 1.54416517,7.00421576 1.39114056,7.15742882 C1.23811595,7.31064189 1.02951798,7.39527714 0.813,7.392 L0.813,7.392 Z" id="Path_1002"></path>
                </g>
                <g id="XMLID_2_" transform="translate(14.759000, 5.875000)">
                    <path d="M5.525,16.576 C5.08043646,16.5654484 4.7225516,16.2075635 4.712,15.763 L4.712,5.634 C3.96892574,3.74401023 2.44982906,2.26424764 0.541,1.571 C0.122092017,1.42133083 -0.0961691672,0.960407983 0.0535,0.5415 C0.203169167,0.122592017 0.664092017,-0.0956691672 1.083,0.054 C3.5298483,0.915994005 5.44632965,2.85237728 6.283,5.308 C6.283,5.362 6.337,5.471 6.337,5.525 L6.337,15.818 C6.30245814,16.2423323 5.95070284,16.570695 5.525,16.576 Z" id="Path_1003"></path>
                </g>
                <g id="XMLID_1_" transform="translate(9.992000, 5.875000)">
                    <path d="M0.813,16.63 C0.368436455,16.6194484 0.0105515986,16.2615635 -7.10542736e-15,15.817 L-7.10542736e-15,5.525 C-7.10542736e-15,5.417 -7.10542736e-15,5.362 0.054,5.308 C0.912673088,2.86607226 2.82107326,0.937854085 5.254,0.054 C5.67290798,-0.0956691672 6.13383083,0.122592017 6.2835,0.5415 C6.43316917,0.960407983 6.21490798,1.42133083 5.796,1.571 C3.86889983,2.26479708 2.34384894,3.77010385 1.625,5.688 L1.625,15.818 C1.61394604,16.2617959 1.25679589,16.618946 0.813,16.63 L0.813,16.63 Z" id="Path_1004"></path>
                </g>
                <g id="XMLID_64_" transform="translate(12.159000, 72.016000)">
                    <path d="M0.813,9.209 C0.368436455,9.1984484 0.0105515986,8.84056354 -1.42108547e-14,8.396 L-1.42108547e-14,3.412 C-1.42108547e-14,3.304 -1.42108547e-14,3.249 0.054,3.195 C0.590874178,1.75694477 1.7134671,0.614721009 3.142,0.053 C3.56090798,-0.0966691672 4.02183083,0.121592017 4.1715,0.5405 C4.32116917,0.959407983 4.10290798,1.42033083 3.684,1.57 C2.75005321,1.92198742 2.00453553,2.6464944 1.626,3.57 L1.626,8.4 C1.61335473,8.84300093 1.25605791,9.19853983 0.813,9.209 L0.813,9.209 Z" id="Path_941"></path>
                </g>
            </g>
        </g>
    </g>
</svg>