<?xml version="1.0" encoding="UTF-8"?>
<svg width="12px" height="21px" viewBox="0 0 12 21" version="1.1" xmlns="http://www.w3.org/2000/svg" xmlns:xlink="http://www.w3.org/1999/xlink">
    <!-- Generator: Sketch 62 (91390) - https://sketch.com -->
    <title>Path_1325 2</title>
    <desc>Created with Sketch.</desc>
    <g id="Page-1" stroke="none" stroke-width="1" fill="none" fill-rule="evenodd">
        <g id="Apple-TV-Copy-2" transform="translate(-1151.000000, -4218.000000)" fill="#3CBEB5" fill-rule="nonzero">
            <g id="Path_1325-2" transform="translate(1151.080000, 4217.992510)">
                <path d="M10.72,0.00748991511 L8.046,0.00748991511 C6.69032355,-0.0691423857 5.36790597,0.44515489 4.42021601,1.41758221 C3.47252605,2.39000953 2.99246789,3.72523763 3.104,5.07848992 L3.104,7.41748992 L0.42,7.41748992 C0.188040405,7.41748992 9.32587341e-14,7.60553032 9.32587341e-14,7.83748992 L9.32587341e-14,11.2254899 C9.32587341e-14,11.4574495 0.188040405,11.6454899 0.42,11.6454899 L3.107,11.6454899 L3.107,20.1944899 C3.107,20.4264495 3.29504041,20.6144899 3.527,20.6144899 L7.03,20.6144899 C7.26195959,20.6144899 7.45,20.4264495 7.45,20.1944899 L7.45,11.6454899 L10.592,11.6454899 C10.8239596,11.6454899 11.012,11.4574495 11.012,11.2254899 L11.012,7.83748992 C11.0114502,7.60575843 10.8237315,7.4180397 10.592,7.41748992 L7.45,7.41748992 L7.45,5.43448992 C7.45,4.48148992 7.677,3.99848992 8.918,3.99848992 L10.718,3.99848992 C10.9499596,3.99848992 11.1380191,3.81044951 11.1380191,3.57848992 L11.1380191,0.431489915 C11.1390654,0.319753378 11.0955609,0.212198438 11.0171126,0.132624163 C10.9386644,0.0530498891 10.8317404,0.00801693844 10.72,0.00748991511 Z" id="Path_1325"></path>
            </g>
        </g>
    </g>
</svg>