<?xml version="1.0" encoding="UTF-8"?>
<svg width="76px" height="291px" viewBox="0 0 76 291" version="1.1" xmlns="http://www.w3.org/2000/svg" xmlns:xlink="http://www.w3.org/1999/xlink">
    <!-- Generator: Sketch 62 (91390) - https://sketch.com -->
    <title>Group 9</title>
    <desc>Created with Sketch.</desc>
    <g id="Page-1" stroke="none" stroke-width="1" fill="none" fill-rule="evenodd" stroke-linecap="round" stroke-linejoin="round">
        <g id="Apple-TV-Copy-2" transform="translate(0.000000, -4025.000000)" stroke-width="13">
            <g id="Group-9" transform="translate(-43.000000, 4029.000000)">
                <path d="M52.379085,242 C42.228366,242 34,233.941918 34,224 C34,214.058082 42.228366,206 52.379085,206 L72,206" id="Shape" stroke="#44AB96" transform="translate(53.000000, 224.000000) scale(-1, 1) translate(-53.000000, -224.000000) "></path>
                <path d="M56.3916084,280 C25.247379,280 0,254.93 0,224 C0,193.07 25.247379,168 56.3916084,168 L108,168" id="Shape" stroke="#FFB017" transform="translate(54.000000, 224.000000) scale(-1, 1) translate(-54.000000, -224.000000) "></path>
                <path d="M29,54.2099775 C14.0883135,54.2099775 2,42.0748764 2,27.1049888 C2,12.1351011 14.0883135,0 29,0 C43.9117838,0 56,12.1351011 56,27.1049888 L56,110" id="Shape" stroke="#44AB96" transform="translate(29.000000, 55.000000) scale(-1, 1) translate(-29.000000, -55.000000) "></path>
                <path d="M29.5,90 L27.518018,90 C13.4248378,90 2,101.640427 2,116 L2,116 C2,130.359573 13.4247883,142 27.518018,142 L86.481982,142 C100.57536,142 112,130.359573 112,116 L112,116 C112,101.640427 100.57536,90 86.481982,90 L84.5,90" id="Shape" stroke="#FFB017" transform="translate(57.000000, 116.000000) scale(-1, 1) translate(-57.000000, -116.000000) "></path>
            </g>
        </g>
    </g>
</svg>