<?xml version="1.0" encoding="UTF-8"?>
<svg width="19px" height="19px" viewBox="0 0 19 19" version="1.1" xmlns="http://www.w3.org/2000/svg" xmlns:xlink="http://www.w3.org/1999/xlink">
    <!-- Generator: Sketch 62 (91390) - https://sketch.com -->
    <title>Group 4</title>
    <desc>Created with Sketch.</desc>
    <g id="Page-1" stroke="none" stroke-width="1" fill="none" fill-rule="evenodd">
        <g id="Apple-TV-Copy-2" transform="translate(-1181.000000, -4219.000000)" fill="#3CBEB5" fill-rule="nonzero">
            <g id="Group-4" transform="translate(1181.000000, 4219.000000)">
                <g id="Group-2">
                    <g id="Group_730">
                        <g id="Group_729">
                            <path d="M13.054,0 L5.344,0 C2.39418912,0.00385632695 0.00385632695,2.39418912 0,5.344 L0,13.054 C0.0027545254,16.0045919 2.39340934,18.3961414 5.344,18.4 L13.054,18.4 C16.0056,18.397794 18.397794,16.0056 18.4,13.054 L18.4,5.344 C18.3966915,2.39318104 16.00482,0.0022043664 13.054,0 Z M16.961,13.054 C16.9587952,15.2108626 15.2108626,16.9587952 13.054,16.961 L5.344,16.961 C3.18713741,16.9587952 1.43920482,15.2108626 1.437,13.054 L1.437,5.344 C1.43920482,3.18713741 3.18713741,1.43920482 5.344,1.437 L13.054,1.437 C15.2108626,1.43920482 16.9587952,3.18713741 16.961,5.344 L16.961,13.054 Z" id="Path_1323"></path>
                        </g>
                    </g>
                    <g id="Group_732" transform="translate(4.240000, 4.240000)">
                        <g id="Group_731">
                            <path d="M4.959,0 C2.22021993,0 0,2.22021993 0,4.959 C0,7.69778007 2.22021993,9.918 4.959,9.918 C7.69778007,9.918 9.918,7.69778007 9.918,4.959 C9.91469395,2.22159051 7.69640949,0.00330605373 4.959,0 Z M4.959,8.481 C3.01385311,8.481 1.437,6.90414689 1.437,4.959 C1.437,3.01385311 3.01385311,1.437 4.959,1.437 C6.90414689,1.437 8.481,3.01385311 8.481,4.959 C8.47879565,6.90323309 6.90323309,8.47879565 4.959,8.481 L4.959,8.481 Z" id="Path_1324"></path>
                        </g>
                    </g>
                    <g id="Group_734" transform="translate(13.511000, 3.450000)">
                        <g id="Group_733">
                            <circle id="Ellipse_155" cx="0.719" cy="0.719" r="1"></circle>
                        </g>
                    </g>
                </g>
            </g>
        </g>
    </g>
</svg>