<?xml version="1.0" encoding="UTF-8"?>
<svg width="19px" height="19px" viewBox="0 0 19 19" version="1.1" xmlns="http://www.w3.org/2000/svg" xmlns:xlink="http://www.w3.org/1999/xlink">
    <!-- Generator: Sketch 62 (91390) - https://sketch.com -->
    <title>LinkedIn 2</title>
    <desc>Created with Sketch.</desc>
    <g id="Page-1" stroke="none" stroke-width="1" fill="none" fill-rule="evenodd">
        <g id="Apple-TV-Copy-2" transform="translate(-1218.000000, -4219.000000)" fill="#3CBEB5" fill-rule="nonzero">
            <g id="LinkedIn-2" transform="translate(1218.003692, 4219.550574)">
                <path d="M18.6173085,10.9164256 L18.6173085,17.8004256 L14.6263085,17.8004256 L14.6263085,11.3774256 C14.6263085,9.76342559 14.0493085,8.66242559 12.6043085,8.66242559 C11.6818042,8.66771292 10.8621102,9.25206505 10.5563085,10.1224256 C10.453885,10.4361203 10.4091623,10.765781 10.4243085,11.0954256 L10.4243085,17.8004256 L6.43230846,17.8004256 C6.43230846,17.8004256 6.48630846,6.92142559 6.43230846,5.79442559 L10.4243085,5.79442559 L10.4243085,7.49442559 C10.4163085,7.50742559 10.4053085,7.52042559 10.3983085,7.53342559 L10.4243085,7.53342559 L10.4243085,7.49442559 C11.1608983,6.21397565 12.5483738,5.4493225 14.0243085,5.51042559 C16.6483085,5.51242559 18.6173085,7.22942559 18.6173085,10.9164256 Z M2.25530846,0.0074255851 C1.47937535,-0.0582057541 0.731773525,0.315070184 0.317977104,0.974730854 C-0.095819317,1.63439152 -0.106492659,2.46993296 0.290318262,3.13994846 C0.687129184,3.80996396 1.42495204,4.20221495 2.20230846,4.15642559 L2.22930846,4.15642559 C3.00914963,4.22293251 3.76035772,3.84625317 4.17353644,3.1815286 C4.58671516,2.51680403 4.59198122,1.67646292 4.1871657,1.00661233 C3.78235019,0.336761741 3.03592189,-0.0493026384 2.25530846,0.0074255851 L2.25530846,0.0074255851 Z M0.233308465,17.8014256 L4.22430846,17.8014256 L4.22430846,5.79542559 L0.233308465,5.79542559 L0.233308465,17.8014256 Z" id="LinkedIn"></path>
            </g>
        </g>
    </g>
</svg>