<?xml version="1.0" encoding="UTF-8"?>
<svg width="36px" height="18px" viewBox="0 0 36 18" version="1.1" xmlns="http://www.w3.org/2000/svg" xmlns:xlink="http://www.w3.org/1999/xlink">
    <!-- Generator: Sketch 62 (91390) - https://sketch.com -->
    <title>menu (1) 2</title>
    <desc>Created with Sketch.</desc>
    <g id="Page-1" stroke="none" stroke-width="1" fill="none" fill-rule="evenodd">
        <g id="Apple-TV-Copy-2" transform="translate(-302.000000, -92.000000)" fill="#FFFFFF" fill-rule="nonzero">
            <g id="menu-(1)-2" transform="translate(302.000000, 92.000000)">
                <g id="menu-(1)">
                    <path d="M1.1249737,2.5 L34.8750263,2.5 C35.4960529,2.5 36,2.05195345 36,1.5 C36,0.947963425 35.4959594,0.5 34.8750263,0.5 L1.1249737,0.5 C0.503947071,0.5 0,0.94804655 0,1.5 C0,2.05195345 0.504040585,2.5 1.1249737,2.5 Z" id="Path"></path>
                    <path d="M34.8750263,7.5 L1.1249737,7.5 C0.503947071,7.5 0,7.94804655 0,8.5 C0,9.05195345 0.504040585,9.5 1.1249737,9.5 L34.8750263,9.5 C35.4960529,9.5 36,9.05195345 36,8.5 C36,7.94804655 35.4960529,7.5 34.8750263,7.5 Z" id="Path"></path>
                    <path d="M34.8636621,15.5 L12.1363379,15.5 C11.5090378,15.5 11,15.9480466 11,16.5 C11,17.0520366 11.5091323,17.5 12.1363379,17.5 L34.8636621,17.5 C35.4909622,17.5 36,17.0519534 36,16.5 C36,15.9479634 35.4909622,15.5 34.8636621,15.5 Z" id="Path"></path>
                </g>
            </g>
        </g>
    </g>
</svg>