<?xml version="1.0" encoding="UTF-8"?>
<svg width="50px" height="85px" viewBox="0 0 50 85" version="1.1" xmlns="http://www.w3.org/2000/svg" xmlns:xlink="http://www.w3.org/1999/xlink">
    <!-- Generator: Sketch 62 (91390) - https://sketch.com -->
    <title>mouse</title>
    <desc>Created with Sketch.</desc>
    <g id="Page-1" stroke="none" stroke-width="1" fill="none" fill-rule="evenodd">
        <g id="Apple-TV-Copy-2" transform="translate(-935.000000, -847.000000)" fill-rule="nonzero">
            <g id="mouse" transform="translate(935.000000, 847.000000)">
                <path d="M24.9340334,0 C11.1851977,0 0,11.1851977 0,24.9340334 L0,59.8341785 C0,73.5830142 11.1851977,84.7682119 24.9340334,84.7682119 C38.6828694,84.7682119 49.8680671,73.5830142 49.8680671,59.8341785 L49.8680671,24.9340334 C49.8680671,11.1851977 38.6828694,0 24.9340334,0 Z M44.7821813,59.8341785 C44.7821813,70.7781457 35.8780008,79.6823262 24.9340334,79.6823262 C13.9900662,79.6823262 5.08588576,70.7781457 5.08588576,59.8341785 L5.08588576,24.9340334 C5.08588576,13.9900662 13.9900662,5.08588576 24.9340334,5.08588576 C35.8780008,5.08588576 44.7821813,13.9900662 44.7821813,24.9340334 L44.7821813,59.8341785 Z" id="Shape" fill="#193960"></path>
                <path d="M24.9346803,16.8628414 C23.5299825,16.8628414 22.3917374,18.0010864 22.3917374,19.4057844 L22.3917374,31.1103063 C22.3917374,32.5143575 23.5299825,33.6532492 24.9346803,33.6532492 C26.3387315,33.6532492 27.4776232,32.5143575 27.4776232,31.1103063 L27.4776232,19.4057844 C27.4776232,18.0010864 26.3393781,16.8628414 24.9346803,16.8628414 Z" id="Path" fill="#34B5B6"></path>
            </g>
        </g>
    </g>
</svg>