<?xml version="1.0" encoding="UTF-8"?>
<svg width="501px" height="323px" viewBox="0 0 501 323" version="1.1" xmlns="http://www.w3.org/2000/svg" xmlns:xlink="http://www.w3.org/1999/xlink">
    <!-- Generator: Sketch 62 (91390) - https://sketch.com -->
    <title>Group 8</title>
    <desc>Created with Sketch.</desc>
    <defs>
        <polygon id="path-1" points="0.214439055 0.568597561 185.361867 0.568597561 185.361867 29.2174797 0.214439055 29.2174797"></polygon>
        <polygon id="path-3" points="0 422 516 422 516 0 0 0"></polygon>
    </defs>
    <g id="Page-1" stroke="none" stroke-width="1" fill="none" fill-rule="evenodd">
        <g id="Apple-TV-Copy-2" transform="translate(-286.000000, -2128.000000)">
            <g id="Group-8" transform="translate(244.000000, 2029.000000)">
                <path d="M438,293 C402.65118,293 374,264.346517 374,229.001484 C374,193.653483 402.65118,165 438,165 C473.345852,165 502,193.653483 502,229.001484 C502,264.346517 473.345852,293 438,293 M524.012931,208.833464 C521.798981,199.358542 518.072492,190.469436 513.082288,182.43848 L520.621473,174.901254 C523.871865,171.650862 523.871865,166.380486 520.621473,163.130094 L503.869906,146.380486 C500.621473,143.130094 495.349138,143.130094 492.098746,146.380486 L484.56152,153.917712 C476.532524,148.927508 467.643417,145.201019 458.168495,142.987069 L458.168495,132.324843 C458.168495,127.728448 454.442006,124 449.843652,124 L426.154389,124 C421.557994,124 417.833464,127.728448 417.833464,132.324843 L417.833464,142.987069 C408.356583,145.201019 399.467476,148.927508 391.43848,153.917712 L383.899295,146.380486 C380.648903,143.130094 375.380486,143.130094 372.128135,146.380486 L355.378527,163.130094 C352.128135,166.380486 352.128135,171.650862 355.378527,174.901254 L362.915752,182.43848 C357.925549,190.469436 354.19906,199.358542 351.987069,208.833464 L341.322884,208.833464 C336.726489,208.833464 333,212.559953 333,217.156348 L333,240.845611 C333,245.442006 336.726489,249.168495 341.322884,249.168495 L351.987069,249.168495 C354.19906,258.645376 357.925549,267.534483 362.915752,275.56348 L355.378527,283.100705 C352.128135,286.351097 352.128135,291.621473 355.378527,294.871865 L372.128135,311.623433 C375.380486,314.873824 380.648903,314.873824 383.899295,311.623433 L391.43848,304.084248 C399.467476,309.074451 408.356583,312.80094 417.833464,315.01489 L417.833464,325.677116 C417.833464,330.27547 421.557994,334 426.154389,334 L449.843652,334 C454.442006,334 458.168495,330.27547 458.168495,325.677116 L458.168495,315.01489 C467.643417,312.80094 476.532524,309.074451 484.56348,304.084248 L492.098746,311.623433 C495.349138,314.873824 500.621473,314.873824 503.869906,311.623433 L520.621473,294.871865 C523.871865,291.621473 523.871865,286.351097 520.621473,283.100705 L513.082288,275.56348 C518.072492,267.534483 521.798981,258.645376 524.012931,249.168495 L534.677116,249.168495 C539.271552,249.168495 543,245.442006 543,240.845611 L543,217.156348 C543,212.559953 539.271552,208.833464 534.677116,208.833464 L524.012931,208.833464 Z" id="Fill-15-Copy" fill="#FFFFFF"></path>
                <g id="Group-Copy">
                    <g id="Group-10" transform="translate(157.000000, 392.000000)">
                        <mask id="mask-2" fill="white">
                            <use xlink:href="#path-1"></use>
                        </mask>
                        <g id="Clip-9"></g>
                        <path d="M185.361867,22.5325203 C185.361867,26.2240854 182.323873,29.2182419 178.57538,29.2182419 L6.99963634,29.2182419 C3.25243312,29.2182419 0.214439055,26.2240854 0.214439055,22.5325203 C0.214439055,18.8409553 3.25243312,15.8480691 6.99963634,15.8480691 L67.9078069,15.8480691 L76.3087116,0.568597561 L90.8500779,0.568597561 L94.7262282,0.568597561 L109.267595,0.568597561 L117.668499,15.8480691 L178.57538,15.8480691 C182.323873,15.8480691 185.361867,18.8409553 185.361867,22.5325203" id="Fill-8" fill="#0F3157" mask="url(#mask-2)"></path>
                    </g>
                    <mask id="mask-4" fill="white">
                        <use xlink:href="#path-3"></use>
                    </mask>
                    <g id="Clip-12"></g>
                    <polygon id="Fill-11" fill="#FF4D6B" mask="url(#mask-4)" points="234 388 262 388 262 379 234 379"></polygon>
                    <polygon id="Fill-13" fill="#FF4D6B" mask="url(#mask-4)" points="234 374 262 374 262 365 234 365"></polygon>
                    <path d="M56.792275,361 C48.6227906,361 42,354.354144 42,346.156207 L42,113.845087 C42,105.645856 48.6227906,99 56.792275,99 L443.206435,99 C451.375919,99 458,105.645856 458,113.843793 L458,346.156207 C458,354.354144 451.375919,361 443.206435,361 L56.792275,361 Z" id="Fill-16" fill="#224475" mask="url(#mask-4)"></path>
                </g>
                <g id="Group-8-Copy" transform="translate(153.000000, 165.000000)" fill="#FFFFFF" fill-rule="nonzero">
                    <path d="M93.0224544,129 C92.1103367,129 91.214221,128.903247 90.3021033,128.693615 C83.8532711,127.19394 79.8207507,120.695349 81.3089428,114.196757 L105.31204,9.38076873 C106.800232,2.84992636 113.329075,-1.16533228 119.697897,0.302091561 C126.146729,1.80176647 130.179249,8.30035777 128.691057,14.7989491 L104.68796,119.614938 C103.407795,125.226624 98.4791585,129 93.0224544,129 Z" id="Path"></path>
                    <path d="M157.005533,113 C153.725882,113 150.462229,111.658095 148.078483,108.990452 C143.646954,104.010853 144.046912,96.3474431 148.974388,91.8528695 L179.067185,64.4974072 L148.974388,37.1419448 C144.046912,32.6635387 143.646954,25.0001291 148.078483,20.004362 C152.52601,15.04093 160.109203,14.6367417 165.036678,19.0989803 L205.032422,55.4759249 C207.560153,57.7878818 209,61.0698906 209,64.4974072 C209,67.9249237 207.560153,71.2069325 205.032422,73.5188894 L165.036678,109.895834 C162.732923,111.981446 159.869228,113 157.005533,113 L157.005533,113 Z" id="Path"></path>
                    <path d="M51.9944671,113 C49.1307718,113 46.2670765,111.981572 43.9633217,109.89622 L3.96757779,73.5238005 C1.43984678,71.2121312 0,67.9305307 0,64.5034405 C0,61.0763503 1.43984678,57.7947497 3.96757779,55.4830804 L43.9633217,19.1106608 C48.8907973,14.6328118 56.4579921,15.0369498 60.9215171,20.0159299 C65.3530455,24.99491 64.9530881,32.6573664 60.0256124,37.1513809 L29.9328147,64.5034405 L60.0256124,91.8555 C64.9530881,96.333349 65.3530455,103.995805 60.9215171,108.990951 C58.5377708,111.658262 55.2741181,113 51.9944671,113 Z" id="Path"></path>
                </g>
            </g>
        </g>
    </g>
</svg>