<?xml version="1.0" encoding="UTF-8"?>
<svg width="170px" height="310px" viewBox="0 0 170 310" version="1.1" xmlns="http://www.w3.org/2000/svg" xmlns:xlink="http://www.w3.org/1999/xlink">
    <!-- Generator: Sketch 62 (91390) - https://sketch.com -->
    <title>Group 7</title>
    <desc>Created with Sketch.</desc>
    <g id="Page-1" stroke="none" stroke-width="1" fill="none" fill-rule="evenodd" stroke-linecap="round" stroke-linejoin="round">
        <g id="Apple-TV-Copy-2" transform="translate(-1750.000000, -1390.000000)" stroke-width="13">
            <g id="Group-7" transform="translate(1757.000000, 1397.000000)">
                <path d="M155,101.952706 C129.042698,101.952706 108,122.557964 108,147.976353 C108,173.394742 129.042698,194 155,194 C180.957302,194 202,173.394742 202,147.976353 L202,0" id="Shape" stroke="#4484AB"></path>
                <path d="M118,231.633136 L118,237.325444 C118,269.730438 91.5847313,296 59,296 L59,296 C26.4152687,296 0,269.730438 0,237.325444 L0,58.6745562 C0,26.2694746 26.4152687,0 59,0 L59,0 C91.5847313,0 118,26.2694746 118,58.6745562 L118,60.4260355" id="Shape" stroke="#FFB017"></path>
            </g>
        </g>
    </g>
</svg>