<?xml version="1.0" encoding="UTF-8"?>
<svg width="149px" height="512px" viewBox="0 0 149 512" version="1.1" xmlns="http://www.w3.org/2000/svg" xmlns:xlink="http://www.w3.org/1999/xlink">
    <!-- Generator: Sketch 62 (91390) - https://sketch.com -->
    <title>Group 6</title>
    <desc>Created with Sketch.</desc>
    <g id="Page-1" stroke="none" stroke-width="1" fill="none" fill-rule="evenodd" stroke-linecap="round" stroke-linejoin="round">
        <g id="Apple-TV-Copy-2" transform="translate(0.000000, -1184.000000)" stroke-width="13">
            <g id="Group-6" transform="translate(-214.000000, 1062.000000)">
                <path d="M356,129 C356,168.212708 324.660417,200 286,200 C247.339583,200 216,168.212708 216,129" id="Shape" stroke="#44AB96"></path>
                <path d="M6.30906186,403.269662 C-19.5384507,500.18718 36.3771705,599.444289 131.195045,624.975065 C226.012919,650.491219 323.843426,592.61561 349.690938,495.698092 C375.538451,398.780574 319.622829,299.527852 224.804955,274" id="Shape" stroke="#44AB96"></path>
                <path d="M174,382.358543 C212.660417,382.358543 244,413.399636 244,451.679272 C244,489.958908 212.660417,521 174,521 C135.339583,521 104,489.958908 104,451.679272 L104,0" id="Shape" stroke="#E53855"></path>
            </g>
        </g>
    </g>
</svg>