<?xml version="1.0" encoding="UTF-8"?>
<svg width="68px" height="54px" viewBox="0 0 68 54" version="1.1" xmlns="http://www.w3.org/2000/svg" xmlns:xlink="http://www.w3.org/1999/xlink">
    <!-- Generator: Sketch 62 (91390) - https://sketch.com -->
    <title>Group 13</title>
    <desc>Created with Sketch.</desc>
    <g id="Page-1" stroke="none" stroke-width="1" fill="none" fill-rule="evenodd">
        <g id="Apple-TV-Copy-2" transform="translate(-686.000000, -3170.000000)" fill-rule="nonzero">
            <g id="Group-13" transform="translate(686.000000, 3170.000000)">
                <g id="Group-12" transform="translate(34.000000, 27.000000) scale(-1, 1) translate(-34.000000, -27.000000) ">
                    <path d="M65.7489491,13.4854735 L3.99592004,0.222435804 L3.19338177,0.0504766964 C2.35938506,-0.129869443 1.49534417,0.18135104 0.970277024,0.851220895 C0.445209883,1.52109075 0.351929098,2.43120157 0.730273388,3.19285969 L25.2487533,52.7669126 C25.5707532,53.4132603 26.1882398,53.8634145 26.9043488,53.973859 C27.6229831,54.0851643 28.3505556,53.8367777 28.8493868,53.3098408 L45.8793424,35.4315153 C46.124251,35.167912 46.4686318,35.0181643 46.8292936,35.0184464 C47.3234154,35.0115039 47.7811025,35.2764515 48.0194919,35.7074326 L51.5077169,42.1313048 C51.965906,43.0126435 52.9681532,43.4699314 53.9377974,43.2400597 L53.9551597,43.2362344 C54.936902,43.0291966 55.6486135,42.1798237 55.677224,41.1810832 L56.3759883,26.3524989 C56.3843166,26.1674841 56.4307284,25.9861448 56.512346,25.8197242 C56.5999625,25.6550254 56.7188789,25.5088409 56.8624877,25.3892936 L66.6872055,17.3595926 C67.3461628,16.8210671 67.6378127,15.9548077 67.437973,15.1296611 C67.2381334,14.3045145 66.5819981,13.6657985 65.7489447,13.4854735 L65.7489491,13.4854735 Z M66.1261402,16.6769833 L56.3014491,24.7067196 C56.1734302,24.8093955 56.0574225,24.9260884 55.9556158,25.0545957 L3.88430217,1.54231759 C3.83837585,1.5210433 3.79046416,1.50430601 3.7412554,1.49234619 C3.32688849,1.38601129 2.89520241,1.58851807 2.71374504,1.97435805 C2.53228766,2.36019803 2.65249655,2.81999752 2.99986934,3.06878468 L45.8141439,34.3815808 C45.5968786,34.4940469 45.4007187,34.6429723 45.2342862,34.8218111 L28.2045304,52.7000394 C27.9046082,53.0142454 27.4694484,53.1627845 27.0389865,53.0978904 C26.6085247,53.0329964 26.2370375,52.7628517 26.0439851,52.3743276 L1.52551852,2.80027463 C1.30188361,2.34327411 1.35942811,1.7993291 1.67378744,1.39874819 C1.98814677,0.998167284 2.50433667,0.811015675 3.00380017,0.916534139 L3.82539742,1.09330465 L65.5591543,14.3515752 C66.0593145,14.4593893 66.45361,14.8422948 66.574335,15.3374303 C66.69506,15.8325658 66.5209814,16.3528473 66.1261402,16.6769833 L66.1261402,16.6769833 Z" id="Shape" fill="#224475"></path>
                    <path d="M65.7489491,13.4854735 L3.99592004,0.222435804 L3.19338177,0.0504766964 C2.35938506,-0.129869443 1.49534417,0.18135104 0.970277024,0.851220895 C0.445209883,1.52109075 0.351929098,2.43120157 0.730273388,3.19285969 L25.2487533,52.7669126 C25.5707532,53.4132603 26.1882398,53.8634145 26.9043488,53.973859 C27.6229831,54.0851643 28.3505556,53.8367777 28.8493868,53.3098408 L45.8793424,35.4315153 C46.124251,35.167912 46.4686318,35.0181643 46.8292936,35.0184464 C47.3234154,35.0115039 47.7811025,35.2764515 48.0194919,35.7074326 L51.5077169,42.1313048 C51.965906,43.0126435 52.9681532,43.4699314 53.9377974,43.2400597 L53.9551597,43.2362344 C54.936902,43.0291966 55.6486135,42.1798237 55.677224,41.1810832 L56.3759883,26.3524989 C56.3843166,26.1674841 56.4307284,25.9861448 56.512346,25.8197242 C56.5999625,25.6550254 56.7188789,25.5088409 56.8624877,25.3892936 L66.6872055,17.3595926 C67.3461628,16.8210671 67.6378127,15.9548077 67.437973,15.1296611 C67.2381334,14.3045145 66.5819981,13.6657985 65.7489447,13.4854735 L65.7489491,13.4854735 Z M66.1261402,16.6769833 L56.3014491,24.7067196 C56.1734302,24.8093955 56.0574225,24.9260884 55.9556158,25.0545957 C55.8638084,25.1689171 55.7845316,25.2926773 55.7191351,25.4237694 C55.6506084,25.5578391 55.5966009,25.6987864 55.5580243,25.8442323 L55.5589881,25.8485528 C55.5182817,26.0000537 55.4948143,26.1556314 55.4890282,26.3123538 L54.7904682,41.1408894 C54.7783914,41.7414325 54.3498942,42.2534462 53.7588002,42.3736352 L53.7501168,42.37555 C53.1679256,42.5195383 52.5627283,42.245896 52.2885134,41.7146804 L48.799329,35.286501 C48.4338304,34.614244 47.744885,34.1782431 46.9783854,34.1341118 L46.9741481,34.1350449 C46.9234204,34.1326746 46.8728792,34.130207 46.8233285,34.1320599 C46.4715536,34.1322207 46.1251354,34.2178734 45.8141528,34.3815808 C45.5968875,34.4940469 45.4007276,34.6429723 45.2342951,34.8218111 L28.2045393,52.7000394 C27.904617,53.0142454 27.4694572,53.1627845 27.0389954,53.0978904 C26.6085336,53.0329964 26.2370464,52.7628517 26.043994,52.3743276 L1.52551852,2.80027463 C1.30188361,2.34327411 1.35942811,1.7993291 1.67378744,1.39874819 C1.98814677,0.998167284 2.50433667,0.811015675 3.00380017,0.916534139 L3.82539742,1.09330465 L65.5591543,14.3515752 C66.0593145,14.4593893 66.45361,14.8422948 66.574335,15.3374303 C66.69506,15.8325658 66.5209814,16.3528473 66.1261402,16.6769833 L66.1261402,16.6769833 Z" id="Shape" fill="#224475"></path>
                    <path d="M56.5,25.0525656 L56.1297758,25.870853 L55.9010593,25.7697215 L55.9000869,25.7653327 L3.40623295,1.90449216 L47.2396943,34.187166 L47.2439694,34.1862182 L47.3600327,34.2754949 L46.8315098,35 L46.0693544,34.4375846 L2.87343491,2.62993163 C2.52296565,2.37721272 2.40168523,1.91014671 2.5847601,1.51820905 C2.76783498,1.12627138 3.20336909,0.920564259 3.62142966,1.02857963 C3.67107706,1.04072847 3.71941584,1.05773026 3.76575153,1.07934077 L56.3012269,24.963199 L56.5,25.0525656 Z" id="Path" fill="#3F3D56"></path>
                </g>
            </g>
        </g>
    </g>
</svg>