<?xml version="1.0" encoding="UTF-8"?>
<svg width="21px" height="18px" viewBox="0 0 21 18" version="1.1" xmlns="http://www.w3.org/2000/svg" xmlns:xlink="http://www.w3.org/1999/xlink">
    <!-- Generator: Sketch 62 (91390) - https://sketch.com -->
    <title>Group_663 2</title>
    <desc>Created with Sketch.</desc>
    <g id="Page-1" stroke="none" stroke-width="1" fill="none" fill-rule="evenodd">
        <g id="Apple-TV-Copy-2" transform="translate(-1258.000000, -4219.000000)" fill="#3CBEB5" fill-rule="nonzero">
            <g id="Group_663-2" transform="translate(1258.001000, 4219.441000)">
                <g id="Group_663">
                    <path d="M20.782,1.997 C20.0041176,2.34174557 19.1789472,2.56792585 18.334,2.668 C19.2234862,2.13519773 19.8893763,1.29768274 20.208,0.311 C19.3702143,0.807314048 18.454172,1.15763515 17.499,1.347 C16.1774824,-0.0567984808 14.0788068,-0.400053577 12.3789108,0.509568645 C10.6790148,1.41919087 9.80024625,3.35569006 10.235,5.234 C6.80668157,5.06259844 3.61249736,3.44315032 1.448,0.779 C0.317148994,2.7268643 0.8945658,5.2182055 2.767,6.47 C2.08997486,6.44758155 1.42803289,6.26418489 0.836,5.935 L0.836,5.988 C0.836897677,8.01700508 2.2664665,9.7647669 4.255,10.168 C3.88883437,10.266768 3.51125239,10.3168657 3.132,10.317 C2.86338678,10.3169879 2.59542739,10.2905269 2.332,10.238 C2.88910347,11.9740248 4.48811302,13.1639386 6.311,13.199 C4.80071581,14.3830625 2.93610081,15.0247944 1.017,15.021 C0.676771698,15.0194643 0.336900005,14.9987648 -0.001,14.959 C1.94760253,16.2133835 4.21656082,16.8793149 6.534,16.877 C9.75706662,16.8995457 12.8547354,15.6294968 15.1343132,13.3508587 C17.413891,11.0722205 18.6852169,7.97507565 18.664,4.752 L18.65,4.2 C19.4881253,3.60073503 20.2105032,2.85430045 20.782,1.997 L20.782,1.997 Z" id="Path_1208"></path>
                </g>
            </g>
        </g>
    </g>
</svg>